<?xml version="1.0" encoding="UTF-8"?>
<svg id="Layer_1" xmlns="http://www.w3.org/2000/svg" version="1.1" viewBox="0 0 841.89 595.28">
  <!-- Generator: Adobe Illustrator 29.3.1, SVG Export Plug-In . SVG Version: 2.1.0 Build 151)  -->
  <defs>
    <style>
      .st0 {
        fill: #003b55;
      }
    </style>
  </defs>
  <path class="st0" d="M477.99,427.11c-3.92,0-7.18,3.07-7.18,7.51s3.26,7.51,7.18,7.51,7.13-3.02,7.13-7.51-3.26-7.51-7.13-7.51Z"/>
  <path class="st0" d="M219.62,96.16v402.45h402.45V96.16H219.62ZM329.06,446.65h-6v-24.08h6v24.08ZM323.06,418.47v-5.34h5.95v5.34h-5.95ZM358.34,446.65h-5.95v-14.26c0-2.93-.76-4.91-3.83-4.91s-5.57,2.03-6.47,4.91c-.33.99-.43,2.08-.43,3.21v11.05h-6v-24.08h5.76v2.78c0,.9-.1,1.65-.1,1.65h.1c1.04-2.03,3.68-5,8.55-5,5.33,0,8.36,2.78,8.36,9.16v15.49ZM375.96,447.22c-7.98,0-13.08-5.62-13.08-12.61s5.1-12.61,13.08-12.61c6.28,0,9.25,3.59,9.25,3.59l-2.64,4.11s-2.5-2.6-6.28-2.6c-4.44,0-7.32,3.35-7.32,7.46s2.93,7.55,7.51,7.55c4.06,0,7.08-3.07,7.08-3.07l2.31,4.25s-3.45,3.92-9.91,3.92ZM399.34,446.75s-.9.14-1.89.14c-3.3,0-7.41-.85-7.41-7.74v-26.02h5.95v25.12c0,2.64.9,3.31,2.46,3.31.47,0,.9-.05.9-.05v5.24ZM425.93,446.65h-5.76v-2.74c0-.95.1-1.7.1-1.7h-.1c-1.18,2.5-4.25,5-8.36,5-5.14,0-8.36-2.6-8.36-9.16v-15.48h6v14.26c0,2.93.76,4.91,3.73,4.91,4.34,0,6.75-3.82,6.75-8.12v-11.05h6v24.08ZM439.87,447.22c-6,0-9.35-3.54-9.35-3.54l2.74-4.2s2.64,2.64,6.56,2.64c1.7,0,3.16-.75,3.16-2.17,0-3.59-11.71-3.12-11.71-10.86,0-4.49,4.01-7.08,9.21-7.08s8.07,2.74,8.07,2.74l-2.22,4.44s-2.22-2.08-5.9-2.08c-1.56,0-3.07.66-3.07,2.17,0,3.4,11.71,2.97,11.71,10.72,0,4.01-3.49,7.22-9.21,7.22ZM459.9,446.65h-6v-24.08h6v24.08ZM453.9,418.47v-5.34h5.95v5.34h-5.95ZM477.99,447.22c-7.37,0-13.27-5.19-13.27-12.61s5.9-12.61,13.22-12.61,13.27,5.24,13.27,12.61-5.9,12.61-13.22,12.61ZM518.7,446.65h-5.95v-14.26c0-2.93-.76-4.91-3.83-4.91s-5.57,2.03-6.47,4.91c-.33.99-.43,2.08-.43,3.21v11.05h-6v-24.08h5.76v2.78c0,.9-.09,1.65-.09,1.65h.09c1.04-2.03,3.68-5,8.55-5,5.33,0,8.36,2.78,8.36,9.16v15.49ZM478.74,370.72c-36.32,18.97-86.2,21.14-122.92,2.59-34.69-17.52-54.7-51.94-49.42-90.55,5.2-38.04,32.25-61.67,70.18-64.24,1.23-.08,2.39-.04,3.5.07,10.74-.49,21.62.54,32.17,2.1,13.37,1.97,29.14,5.06,39.38,14.59,5.92,5.51-2.96,14.35-8.86,8.86-3.15-2.94-8.58-5.25-13.41-6.81-.12-.04-.24-.07-.36-.1,9.48,5.72,17.84,13.36,24.37,22.55,4.12,5.81-5.4,13.08-9.84,7.59-3.19-3.94-7.17-7.23-11.54-10.08,5.27,5.95,10.02,12.36,14.34,19.02,3.84,5.93-5.4,13.15-9.84,7.59-5.11-6.39-10.56-12.5-16.41-18.2,3.77,5.88,6.91,12.16,9.64,18.68,0,0,0,.01.01.02,0,0,0,0,0,0,.21.5.43.99.63,1.5,2.75,6.77-7.99,10.72-11.45,4.83-5.59-9.49-11.76-18.38-18.32-26.98.06.15.12.29.18.43,2.15,4.52,3.48,9.44,4.28,14.37.54,3.35-.82,6.73-4.38,7.71-3.12.86-7.01-1.06-7.71-4.38-.94-4.47-2.24-8.8-3.85-13-.55-1.09-1.13-2.17-1.85-3.19-.03-.05-.07-.09-.1-.14-5.59-7.9-16.43-9.9-25.07-5.54-15.95,8.04-22.41,27.21-18.31,46.49,8.17,38.42,56.65,44.43,88.12,39.98,37.88-5.35,65.99-32,66.48-71.35.49-40.35-18.78-77.86-60.32-87.37-.05-.01-.1-.03-.15-.04-.39,0-.78-.03-1.18-.09-9.61-1.34-17.26,1.78-23.29,7.77-2.15,2.46-4.19,5.01-6.03,7.71-4.5,6.59-15.1.62-10.82-6.33,2.87-4.66,6.25-9.08,10.34-12.71-9.6,5.58-18.96,11.59-27.97,18.39-5.85,4.42-12.4-4.97-7.59-9.84,5.19-5.26,10.75-10.05,16.76-14.18-7.34,2.93-14.46,6.37-21.42,10.2-7.16,3.94-12.9-6.29-6.33-10.82,6.36-4.38,12.96-8.38,19.88-11.74-4.88.91-9.57,2.32-13.75,4.59-7.11,3.86-13.15-6.53-6.33-10.82,9.72-6.1,20.52-9.84,31.6-11.3-5.99-.59-11.94-.38-17.2,1.57-7.58,2.82-10.83-9.3-3.33-12.09,12.83-4.77,28.8-1.3,41.58,1.86,10.79,2.66,34.15,11.36,35.23,11.61,52.15,11.94,82.23,57.01,87.19,108.09,4.46,45.96-14.67,89.27-56.51,111.13Z"/>
</svg>