<?xml version="1.0" encoding="UTF-8"?>
<svg id="Layer_1" xmlns="http://www.w3.org/2000/svg" version="1.1" viewBox="0 0 142.05 186.19">
  <!-- Generator: Adobe Illustrator 29.5.1, SVG Export Plug-In . SVG Version: 2.1.0 Build 141)  -->
  <defs>
    <style>
      .st0 {
        fill: #fff;
      }

      .st1 {
        fill: #354c9b;
      }

      .st2 {
        fill: #2f4fa0;
      }

      .st3 {
        fill: #f15825;
      }
    </style>
  </defs>
  <path class="st3" d="M142.05,112.31c0-15.84-8.36-30.08-21.68-40.01,6.77-7.52,10.82-16.76,10.82-26.79C131.19,20.38,106.07,0,75.09,0S18.99,20.38,18.99,45.51c0,10.03,4.04,19.27,10.82,26.79-13.32,9.93-21.68,24.18-21.68,40.01,0,11.89,4.72,22.89,12.72,31.84l-11.79,11.79-1.67-1.67c-1.68-1.68-4.44-1.68-6.12,0h0c-1.68,1.68-1.68,4.44,0,6.12l13.07,13.07c1.68,1.68,4.44,1.68,6.12,0l3.06-3.06,13.44-13.44c10.82,6.1,23.96,9.68,38.13,9.68,2.26,0,4.49-.09,6.69-.27v11.16h-2.36c-2.38,0-4.33,1.95-4.33,4.33h0c0,2.38,1.95,4.33,4.33,4.33h18.49c2.38,0,4.33-1.95,4.33-4.33v-19.89c23.45-8.45,39.81-27.5,39.81-49.66Z"/>
  <path class="st2" d="M64.2,99.81c-8.9,0-16.14-7.24-16.14-16.14,0-.79.64-1.43,1.43-1.43s1.43.64,1.43,1.43c0,7.32,5.95,13.27,13.27,13.27.79,0,1.43.64,1.43,1.43s-.64,1.43-1.43,1.43Z"/>
  <rect class="st0" x="63.55" y="67.6" width="9.9" height="16.07" rx="4.95" ry="4.95"/>
  <rect class="st1" x="66.58" y="72.17" width="6.94" height="8.98" rx="3.47" ry="3.47"/>
  <rect class="st0" x="76.55" y="67.6" width="9.9" height="16.07" rx="4.95" ry="4.95"/>
  <rect class="st1" x="79.58" y="72.17" width="6.94" height="8.98" rx="3.47" ry="3.47"/>
</svg>