<?xml version="1.0" encoding="UTF-8"?>
<svg id="Layer_1" xmlns="http://www.w3.org/2000/svg" version="1.1" viewBox="0 0 1919.73 311.03">
  <!-- Generator: Adobe Illustrator 29.5.1, SVG Export Plug-In . SVG Version: 2.1.0 Build 141)  -->
  <defs>
    <style>
      .st0 {
        fill: #f0c71c;
      }

      .st1 {
        fill: #d5e6a9;
      }

      .st2 {
        fill: #d9cee6;
      }

      .st3 {
        fill: #fff;
      }

      .st4 {
        fill: #f15825;
      }

      .st5 {
        fill: #0fb6a6;
      }

      .st6 {
        fill: #e67ab0;
      }

      .st7 {
        fill: #354c9b;
      }

      .st8 {
        fill: #2f4fa0;
      }

      .st9 {
        fill: #68cdf1;
      }
    </style>
  </defs>
  <path class="st7" d="M1819.1,210.87c-21.7,0-41.67,6.41-58.02,17.9-18.49-78.58-87.07-128.99-170.23-128.99-63.89,0-119.18,29.75-149.77,79.03-13.49,1.28-26.14,5.97-37.36,13.64-24.25-88.81-103.66-145.37-199.43-145.37s-175.78,56.99-199.71,146.05c-13.35-9.41-28.75-14.59-45.25-14.7C936.9,69.92,846.31,0,736.09,0c-117.77,0-213.12,79.82-226.87,200.76-26.63-62.35-88.27-100.99-161.08-100.99-84.27,0-153.56,51.77-170.94,131.85-18.55-13.29-41.9-20.76-67.46-20.76-59.36,0-106.91,40.2-109.74,100.17h1919.73c-2.71-60.09-46.27-100.16-100.62-100.16Z"/>
  <g>
    <path class="st4" d="M705.76,160.04h0c6.77-7.52,10.82-16.76,10.82-26.79,0-25.14-25.12-45.51-56.1-45.51s-56.1,20.38-56.1,45.51c0,10.03,4.04,19.27,10.82,26.79-13.32,9.93-21.68,24.18-21.68,40.01,0,11.89,4.72,22.89,12.72,31.84l-11.79,11.79-1.67-1.67c-1.68-1.68-4.44-1.68-6.12,0s-1.68,4.44,0,6.12l13.07,13.07c1.68,1.68,4.44,1.68,6.12,0l3.06-3.06,13.44-13.44c10.82,6.1,23.96,9.68,38.13,9.68,2.26,0,4.49-.09,6.69-.27v11.16h-2.36c-2.38,0-4.33,1.95-4.33,4.33s1.95,4.33,4.33,4.33h18.49c2.38,0,4.33-1.95,4.33-4.33v-19.89c23.45-8.45,39.81-27.5,39.81-49.66,0-15.84-8.36-30.08-21.68-40.01Z"/>
    <polygon class="st8" points="649.58 187.55 649.58 187.55 649.57 187.55 649.58 187.55"/>
    <path class="st8" d="M649.57,184.68c-7.32,0-13.27-5.95-13.27-13.27,0-.79-.64-1.43-1.43-1.43s-1.43.64-1.43,1.43c0,8.9,7.24,16.14,16.13,16.14.79-.01,1.43-.65,1.43-1.44s-.64-1.43-1.43-1.43Z"/>
    <path class="st3" d="M653.89,155.34c-2.73,0-4.95,2.22-4.95,4.95v6.17c0,2.73,2.22,4.95,4.95,4.95s4.95-2.22,4.95-4.95v-6.17c0-2.73-2.22-4.95-4.95-4.95Z"/>
    <rect class="st7" x="651.97" y="159.91" width="6.94" height="8.98" rx="3.47" ry="3.47"/>
    <path class="st3" d="M666.89,155.34c-2.73,0-4.95,2.22-4.95,4.95v6.17c0,2.73,2.22,4.95,4.95,4.95s4.95-2.22,4.95-4.95v-6.17c0-2.73-2.22-4.95-4.95-4.95Z"/>
    <rect class="st7" x="664.97" y="159.91" width="6.94" height="8.98" rx="3.47" ry="3.47"/>
  </g>
  <g>
    <path class="st0" d="M817.29,141.61h0c-37.01-.01-66.42,26.31-66.42,65.16v33.76c0,5.81,4.94,10.71,11.01,10.71h25.98v14.02h-2.36c-2.38,0-4.33,1.95-4.33,4.33s1.95,4.33,4.33,4.33h18.49c2.38,0,4.33-1.95,4.33-4.33v-18.35h16.23l12.71,12.71-1.67,1.67c-1.68,1.68-1.68,4.44,0,6.12s4.44,1.68,6.12,0l13.07-13.07c1.68-1.68,1.68-4.44,0-6.12l-1.3-1.3h19.04c6.07,0,11.19-4.9,11.19-10.71v-33.58c0-39.03-29.41-65.35-66.42-65.35Z"/>
    <path class="st8" d="M829.6,203.05h0c-5.18,5.17-13.6,5.17-18.77,0-.56-.56-1.47-.56-2.03,0s-.56,1.47,0,2.03c3.15,3.15,7.28,4.72,11.41,4.72h.01c4.13,0,8.26-1.57,11.41-4.72.56-.56.56-1.47,0-2.03s-1.47-.56-2.03,0Z"/>
    <path class="st3" d="M821.46,180.64c-2.73,0-4.95,2.22-4.95,4.95v6.17c0,2.73,2.22,4.95,4.95,4.95s4.95-2.22,4.95-4.95v-6.17c0-2.73-2.22-4.95-4.95-4.95Z"/>
    <rect class="st7" x="819.31" y="181.74" width="6.94" height="8.98" rx="3.47" ry="3.47"/>
    <path class="st3" d="M834.47,180.64c-2.73,0-4.95,2.22-4.95,4.95v6.17c0,2.73,2.22,4.95,4.95,4.95s4.95-2.22,4.95-4.95v-6.17c0-2.73-2.22-4.95-4.95-4.95Z"/>
    <rect class="st7" x="832.32" y="181.74" width="6.94" height="8.98" rx="3.47" ry="3.47"/>
  </g>
  <g>
    <path class="st5" d="M1164.5,255.78l-2.7-2.7-10.52-10.52c1.28-3.57,2-7.33,2-11.23,0-10.6-5.1-20.21-13.37-27.39,8.27-7.18,13.37-16.79,13.37-27.39s-5.1-20.21-13.37-27.39c8.27-7.18,13.37-16.79,13.37-27.39,0-22.18-22.17-40.17-49.51-40.17s-49.51,17.98-49.51,40.17c0,10.6,5.1,20.21,13.37,27.39-8.27,7.18-13.37,16.79-13.37,27.39s5.1,20.21,13.37,27.39c-8.27,7.18-13.37,16.79-13.37,27.39,0,5.68,1.47,11.08,4.1,15.98l-9.7,9.7-1.47-1.47c-1.49-1.49-3.92-1.49-5.4,0-1.49,1.49-1.49,3.92,0,5.4l11.54,11.54c1.49,1.49,3.92,1.49,5.4,0l2.7-2.7,8.9-8.9c8.81,6.57,20.54,10.62,33.45,10.62,14.84,0,28.12-5.33,37.2-13.72l8.07,8.07-1.47,1.47c-1.49,1.49-1.49,3.92,0,5.4,1.49,1.49,3.92,1.49,5.4,0l11.54-11.54c1.49-1.49,1.49-3.92,0-5.4h-.02Z"/>
    <path class="st8" d="M1119.96,133.09h0c-.79,0-1.43.64-1.43,1.43,0,7.32-5.95,13.27-13.27,13.27-.79,0-1.43.64-1.43,1.43s.64,1.43,1.43,1.43c8.9.01,16.14-7.23,16.14-16.13,0-.79-.64-1.43-1.43-1.43Z"/>
    <rect class="st3" x="1093.33" y="116.87" width="9.9" height="16.07" rx="4.95" ry="4.95"/>
    <path class="st7" d="M1099.6,117.97c-1.92,0-3.47,1.55-3.47,3.47v2.04c0,1.92,1.55,3.47,3.47,3.47s3.47-1.55,3.47-3.47v-2.04c0-1.92-1.55-3.47-3.47-3.47Z"/>
    <rect class="st3" x="1106.33" y="116.87" width="9.9" height="16.07" rx="4.95" ry="4.95"/>
    <path class="st7" d="M1112.6,117.97c-1.92,0-3.47,1.55-3.47,3.47v2.04c0,1.92,1.55,3.47,3.47,3.47s3.47-1.55,3.47-3.47v-2.04c0-1.92-1.55-3.47-3.47-3.47Z"/>
  </g>
  <g>
    <polygon class="st1" points="1000.02 153.89 1000.02 153.89 1000.02 153.89 1000.02 153.89"/>
    <path class="st1" d="M1000.02,153.89h0l-87.26,50.37c-5.58,3.22-5.58,11.27,0,14.49l12.18,7.03-5.38,3.1-.98-1.69c-.99-1.71-3.19-2.3-4.9-1.31-1.71.99-2.3,3.19-1.31,4.9l7.66,13.27c.99,1.71,3.19,2.3,4.9,1.31l3.11-1.79,13.86-8,26.85,15.5v15.17h-1.96c-1.97,0-3.59,1.62-3.59,3.59s1.62,3.59,3.59,3.59h15.32c1.97,0,3.59-1.62,3.59-3.59v-8.97l14.31,8.26c5.58,3.22,12.55-.8,12.55-7.24v-100.75c0-6.44-6.97-10.46-12.55-7.24Z"/>
    <path class="st8" d="M982.16,216.4h0c-2.51,2.51-5.84,3.89-9.38,3.89s-6.87-1.38-9.38-3.89c-.56-.56-1.47-.56-2.03,0s-.56,1.47,0,2.03c3.05,3.05,7.1,4.73,11.41,4.73s8.36-1.68,11.41-4.73c.56-.56.56-1.47,0-2.03s-1.47-.56-2.03,0Z"/>
    <path class="st3" d="M974.04,193.99c-2.73,0-4.95,2.22-4.95,4.95v6.17c0,2.73,2.22,4.95,4.95,4.95s4.95-2.22,4.95-4.95v-6.17c0-2.73-2.22-4.95-4.95-4.95Z"/>
    <rect class="st7" x="970.61" y="201.08" width="6.94" height="8.98" rx="3.47" ry="3.47"/>
    <path class="st3" d="M987.05,193.99c-2.73,0-4.95,2.22-4.95,4.95v6.17c0,2.73,2.22,4.95,4.95,4.95s4.95-2.22,4.95-4.95v-6.17c0-2.73-2.22-4.95-4.95-4.95Z"/>
    <rect class="st7" x="983.61" y="201.08" width="6.94" height="8.98" rx="3.47" ry="3.47"/>
  </g>
  <g>
    <path class="st6" d="M508.3,128.77h0c-30.14,0-54.57,30.11-54.57,67.26,0,16.21,4.65,31.07,12.4,42.69l-11.05,11.05-1.37-1.37c-1.39-1.39-3.65-1.39-5.04,0-1.39,1.39-1.39,3.65,0,5.04l10.76,10.76c1.39,1.39,3.65,1.39,5.04,0l2.52-2.52,10.31-10.31c8.81,7.51,19.49,11.92,31.01,11.92,9.53,0,18.49-3.02,26.29-8.31l8.52,8.52-1.37,1.37c-1.39,1.39-1.39,3.65,0,5.04s3.65,1.39,5.04,0l10.76-10.76c1.39-1.39,1.39-3.65,0-5.04l-2.52-2.52h-.02l-8.07-8.07c9.84-12.17,15.93-28.95,15.93-47.49,0-37.15-24.43-67.26-54.57-67.26Z"/>
    <polygon class="st8" points="501.84 190.6 501.84 190.6 501.83 190.6 501.84 190.6"/>
    <path class="st8" d="M518.49,171.09c-.79,0-1.43.64-1.43,1.43,0,8.39-6.83,15.22-15.22,15.22-.79,0-1.43.64-1.43,1.43s.64,1.43,1.43,1.43c9.98,0,18.08-8.1,18.08-18.08,0-.79-.64-1.43-1.43-1.43Z"/>
    <path class="st3" d="M495.3,160.85c-2.73,0-4.95,2.22-4.95,4.95v6.17c0,2.73,2.22,4.95,4.95,4.95s4.95-2.22,4.95-4.95v-6.17c0-2.73-2.22-4.95-4.95-4.95Z"/>
    <path class="st7" d="M493.75,163.53c-1.92,0-3.47,1.55-3.47,3.47v2.04c0,1.92,1.55,3.47,3.47,3.47s3.47-1.55,3.47-3.47v-2.04c0-1.92-1.55-3.47-3.47-3.47Z"/>
    <path class="st3" d="M508.3,160.85c-2.73,0-4.95,2.22-4.95,4.95v6.17c0,2.73,2.22,4.95,4.95,4.95s4.95-2.22,4.95-4.95v-6.17c0-2.73-2.22-4.95-4.95-4.95Z"/>
    <path class="st7" d="M506.75,163.53c-1.92,0-3.47,1.55-3.47,3.47v2.04c0,1.92,1.55,3.47,3.47,3.47s3.47-1.55,3.47-3.47v-2.04c0-1.92-1.55-3.47-3.47-3.47Z"/>
  </g>
  <g>
    <path class="st9" d="M1271.48,137.31h0c-2.03,2.89-3.48,6.03-4.46,9.3-.91,3.06-1.38,6.24-1.43,9.46-.13,8.99-4.27,17.19-12.35,20.93-.07.03-.14.06-.2.09-1.22.55-2.59.84-3.97,1.06-10.9,1.79-20.64,7.27-26.97,16.29-11.3,16.1-8.4,38.6,5.52,55.13l-7.22,10.29-1.71-1.2c-1.72-1.21-4.12-.79-5.32.93-1.21,1.72-.79,4.12.93,5.32l13.36,9.37c1.72,1.21,4.12.79,5.32-.93l2.2-3.13,6.17-8.8c16.17,10.16,35.26,11.36,49.76,4.32l8.34,5.85-1.2,1.71c-1.21,1.72-.79,4.12.93,5.32,1.72,1.21,4.12.79,5.32-.93l9.37-13.36c1.21-1.72.79-4.12-.93-5.32h.03l-3.13-2.19-4.29-3.01c.13-.18.29-.34.42-.53,6.33-9.02,8.17-20.04,6.14-30.9-.26-1.37-.45-2.75-.35-4.09,0-.07.01-.15.02-.22.77-8.87,7.07-15.55,15.48-18.73,3.01-1.14,5.84-2.66,8.4-4.56h.01c2.74-2.04,5.2-4.47,7.23-7.36,9.17-13.07,7.98-31.67-3.7-45.87-19.74-24.01-53.63-24.32-67.72-4.24Z"/>
    <path class="st8" d="M1265.03,234.9c-4.94.87-9.99-2.68-10.86-7.62-.14-.78-.88-1.3-1.66-1.16-.78.14-1.3.88-1.16,1.66.57,3.22,2.35,6.03,5.03,7.91,2.68,1.87,5.93,2.6,9.15,2.03.78-.14,1.3-.88,1.16-1.66-.14-.78-.88-1.3-1.66-1.16Z"/>
    <path class="st3" d="M1268.74,202.22c-2.24-1.57-5.33-1.03-6.9,1.21l-3.54,5.05c-1.57,2.24-1.03,5.33,1.21,6.9s5.33,1.03,6.9-1.21l3.54-5.05c1.57-2.24,1.03-5.33-1.21-6.9Z"/>
    <path class="st7" d="M1264.33,207.8c-1.57-1.1-3.73-.72-4.83.85l-1.17,1.67c-1.1,1.57-.72,3.73.85,4.83,1.57,1.1,3.73.72,4.83-.85l1.17-1.67c1.1-1.57.72-3.73-.85-4.83Z"/>
    <path class="st3" d="M1279.38,209.7c-2.24-1.57-5.32-1.03-6.9,1.21l-3.54,5.05c-1.57,2.24-1.03,5.33,1.21,6.9s5.32,1.03,6.9-1.21l3.54-5.05c1.57-2.24,1.03-5.33-1.21-6.9Z"/>
    <path class="st7" d="M1274.97,215.26c-1.57-1.1-3.73-.72-4.83.85l-1.17,1.67c-1.1,1.57-.72,3.73.85,4.83,1.57,1.1,3.73.72,4.83-.85l1.17-1.67c1.1-1.57.72-3.73-.85-4.83Z"/>
  </g>
  <g>
    <polygon class="st2" points="1524.26 162.43 1524.27 162.42 1524.26 162.42 1524.26 162.43"/>
    <path class="st2" d="M1524.27,162.42s0,0,0,.01h0s0-.01,0-.01c.12-.81-.06-1.66-.63-2.46l-64.97-91.9c-1.9-2.69-6.65-2.69-8.55,0l-64.97,91.9c-.57.8-.75,1.66-.63,2.47-.12.81.06,1.67.63,2.47l57.87,81.86-9.53,14.73-1.75-1.13c-1.76-1.14-4.14-.63-5.28,1.13s-.63,4.14,1.13,5.29l13.7,8.86c1.76,1.14,4.14.63,5.28-1.13l2.08-3.21,7.43-11.48,7.66,9.07-1.59,1.34c-1.61,1.36-1.81,3.78-.45,5.39,1.36,1.61,3.78,1.81,5.39.45l12.46-10.53c1.61-1.36,1.81-3.78.45-5.39l-2.47-2.92-10.43-12.35,56.55-79.99c.57-.8.75-1.66.63-2.47h0Z"/>
    <path class="st8" d="M1460.07,152.56c-5.18,5.17-13.6,5.17-18.77,0-.56-.56-1.47-.56-2.03,0s-.56,1.47,0,2.03c3.15,3.15,7.28,4.72,11.41,4.72h.01c4.13,0,8.26-1.57,11.41-4.72.56-.56.56-1.47,0-2.03s-1.47-.56-2.03,0Z"/>
    <rect class="st3" x="1445.73" y="125.85" width="9.9" height="16.07" rx="4.95" ry="4.95"/>
    <path class="st7" d="M1449.13,128.45c-1.92,0-3.47,1.55-3.47,3.47v2.04c0,1.92,1.55,3.47,3.47,3.47s3.47-1.55,3.47-3.47v-2.04c0-1.92-1.55-3.47-3.47-3.47Z"/>
    <rect class="st3" x="1458.73" y="125.85" width="9.9" height="16.07" rx="4.95" ry="4.95"/>
    <path class="st7" d="M1462.13,128.45c-1.92,0-3.47,1.55-3.47,3.47v2.04c0,1.92,1.55,3.47,3.47,3.47s3.47-1.55,3.47-3.47v-2.04c0-1.92-1.55-3.47-3.47-3.47Z"/>
  </g>
</svg>