<?xml version="1.0" encoding="UTF-8"?>
<svg id="Layer_1" xmlns="http://www.w3.org/2000/svg" version="1.1" viewBox="0 0 124.95 192.23">
  <!-- Generator: Adobe Illustrator 29.5.1, SVG Export Plug-In . SVG Version: 2.1.0 Build 141)  -->
  <defs>
    <style>
      .st0 {
        fill: #fff;
      }

      .st1 {
        fill: #354c9b;
      }

      .st2 {
        fill: #2f4fa0;
      }

      .st3 {
        fill: #0fb6a6;
      }
    </style>
  </defs>
  <path class="st3" d="M123.84,174.18l-2.7-2.7-10.52-10.52c1.28-3.57,2-7.33,2-11.23,0-10.6-5.1-20.21-13.37-27.39,8.27-7.18,13.37-16.79,13.37-27.39s-5.1-20.21-13.37-27.39c8.27-7.18,13.37-16.79,13.37-27.39C112.62,17.98,90.45,0,63.11,0S13.6,17.98,13.6,40.17c0,10.6,5.1,20.21,13.37,27.39-8.27,7.18-13.37,16.79-13.37,27.39s5.1,20.21,13.37,27.39c-8.27,7.18-13.37,16.79-13.37,27.39,0,5.68,1.47,11.08,4.1,15.98l-9.7,9.7-1.47-1.47c-1.49-1.49-3.92-1.49-5.4,0h0c-1.49,1.49-1.49,3.92,0,5.4l11.54,11.54c1.49,1.49,3.92,1.49,5.4,0l2.7-2.7,8.9-8.9c8.81,6.57,20.54,10.62,33.45,10.62,14.84,0,28.12-5.33,37.2-13.72l8.07,8.07-1.47,1.47c-1.49,1.49-1.49,3.92,0,5.4h0c1.49,1.49,3.92,1.49,5.4,0l11.54-11.54c1.49-1.49,1.49-3.92,0-5.4Z"/>
  <path class="st2" d="M64.59,69.05c-.79,0-1.43-.64-1.43-1.43s.64-1.43,1.43-1.43c7.32,0,13.27-5.95,13.27-13.27,0-.79.64-1.43,1.43-1.43s1.43.64,1.43,1.43c0,8.9-7.24,16.14-16.14,16.14Z"/>
  <rect class="st0" x="52.67" y="35.27" width="9.9" height="16.07" rx="4.95" ry="4.95"/>
  <rect class="st1" x="55.47" y="36.36" width="6.94" height="8.98" rx="3.47" ry="3.47"/>
  <rect class="st0" x="65.67" y="35.27" width="9.9" height="16.07" rx="4.95" ry="4.95"/>
  <rect class="st1" x="68.47" y="36.36" width="6.94" height="8.98" rx="3.47" ry="3.47"/>
</svg>