<?xml version="1.0" encoding="UTF-8"?>
<svg id="Layer_1" xmlns="http://www.w3.org/2000/svg" version="1.1" viewBox="0 0 139.81 210.93">
  <!-- Generator: Adobe Illustrator 29.5.1, SVG Export Plug-In . SVG Version: 2.1.0 Build 141)  -->
  <defs>
    <style>
      .st0 {
        fill: #fff;
      }

      .st1 {
        fill: #354c9b;
      }

      .st2 {
        fill: #2f4fa0;
      }

      .st3 {
        fill: #d9cee6;
      }
    </style>
  </defs>
  <path class="st3" d="M139.78,96.39c.12-.81-.06-1.67-.63-2.47L74.18,2.02c-1.9-2.69-6.65-2.69-8.55,0L.66,93.92c-.57.8-.75,1.66-.63,2.47-.12.81.06,1.67.63,2.47l57.87,81.86-9.53,14.73-1.75-1.13c-1.76-1.14-4.14-.63-5.28,1.13h0c-1.14,1.76-.63,4.14,1.13,5.29l13.7,8.86c1.76,1.14,4.14.63,5.28-1.13l2.08-3.21,7.43-11.48,7.66,9.07-1.59,1.34c-1.61,1.36-1.81,3.78-.45,5.39h0c1.36,1.61,3.78,1.81,5.39.45l12.46-10.53c1.61-1.36,1.81-3.78.45-5.39l-2.47-2.92-10.43-12.35,56.55-79.99c.57-.8.75-1.66.63-2.47Z"/>
  <path class="st2" d="M66.2,93.27c-4.13,0-8.26-1.57-11.41-4.72-.56-.56-.56-1.47,0-2.03s1.47-.56,2.03,0c5.17,5.17,13.59,5.17,18.77,0,.56-.56,1.47-.56,2.03,0s.56,1.47,0,2.03c-3.15,3.15-7.28,4.72-11.41,4.72Z"/>
  <rect class="st0" x="61.25" y="59.8" width="9.9" height="16.07" rx="4.95" ry="4.95"/>
  <rect class="st1" x="61.18" y="62.41" width="6.94" height="8.98" rx="3.47" ry="3.47"/>
  <rect class="st0" x="74.25" y="59.8" width="9.9" height="16.07" rx="4.95" ry="4.95"/>
  <rect class="st1" x="74.18" y="62.41" width="6.94" height="8.98" rx="3.47" ry="3.47"/>
</svg>