<?xml version="1.0" encoding="UTF-8"?>
<svg id="Layer_1" xmlns="http://www.w3.org/2000/svg" version="1.1" viewBox="0 0 151.1 154.84">
  <!-- Generator: Adobe Illustrator 29.5.1, SVG Export Plug-In . SVG Version: 2.1.0 Build 141)  -->
  <defs>
    <style>
      .st0 {
        fill: #68cdf1;
      }

      .st1 {
        fill: #fff;
      }

      .st2 {
        fill: #354c9b;
      }

      .st3 {
        fill: #2f4fa0;
      }
    </style>
  </defs>
  <path class="st0" d="M99.31,136.78l-2.7-2.7-3.71-3.71c.16-.16.34-.29.5-.45,7.79-7.79,11.51-18.33,11.39-29.37-.01-1.39.03-2.79.36-4.09.02-.07.04-.14.06-.22,2.29-8.6,9.65-14.1,18.48-15.78,3.16-.6,6.21-1.61,9.06-3.04,0,0,0,0,.01,0h0c3.05-1.54,5.89-3.51,8.39-6h0c11.29-11.29,13.33-29.81,4.28-45.82C130.14-1.45,96.8-7.61,79.46,9.73h0c-2.49,2.49-4.46,5.33-5.99,8.39h0s0,0,0,.01c-1.43,2.85-2.44,5.9-3.04,9.06-1.68,8.83-7.17,16.2-15.78,18.48-.07.02-.14.04-.22.06-1.3.33-2.7.38-4.09.36-11.05-.12-21.58,3.6-29.37,11.39-13.91,13.91-14.94,36.56-4.08,55.26l-8.89,8.89-1.47-1.47c-1.49-1.49-3.92-1.49-5.4,0h0c-1.49,1.49-1.49,3.92,0,5.4l11.54,11.54c1.49,1.49,3.92,1.49,5.4,0l2.7-2.7,7.6-7.6c14.17,12.8,32.77,17.28,48.27,12.85l7.21,7.21-1.47,1.47c-1.49,1.49-1.49,3.92,0,5.4h0c1.49,1.49,3.92,1.49,5.4,0l11.54-11.54c1.49-1.49,1.49-3.92,0-5.4Z"/>
  <path class="st3" d="M47.6,104.04c-2.31-2.31-3.59-5.39-3.58-8.66,0-.79.64-1.43,1.43-1.43s1.43.64,1.43,1.43c0,5.02,4.36,9.38,9.38,9.38.79,0,1.43.64,1.43,1.43s-.64,1.43-1.43,1.43c-3.27,0-6.35-1.27-8.66-3.58Z"/>
  <rect class="st1" x="54.83" y="70.91" width="9.9" height="16.07" rx="4.95" ry="4.95" transform="translate(73.33 -19.15) rotate(45)"/>
  <rect class="st2" x="53.52" y="76.68" width="6.94" height="8.98" rx="3.47" ry="3.47" transform="translate(74.09 -16.52) rotate(45)"/>
  <rect class="st1" x="64.03" y="80.11" width="9.9" height="16.07" rx="4.95" ry="4.95" transform="translate(82.53 -22.96) rotate(45)"/>
  <rect class="st2" x="62.71" y="85.87" width="6.94" height="8.98" rx="3.47" ry="3.47" transform="translate(83.28 -20.33) rotate(45)"/>
</svg>