<?xml version="1.0" encoding="UTF-8"?>
<svg id="Layer_1" xmlns="http://www.w3.org/2000/svg" version="1.1" viewBox="0 0 103.98 120.67">
  <!-- Generator: Adobe Illustrator 29.5.1, SVG Export Plug-In . SVG Version: 2.1.0 Build 141)  -->
  <defs>
    <style>
      .st0 {
        fill: #fff;
      }

      .st1 {
        fill: #354c9b;
      }

      .st2 {
        fill: #2f4fa0;
      }

      .st3 {
        fill: #d5e6a9;
      }
    </style>
  </defs>
  <path class="st3" d="M91.44,1.13L4.18,51.51c-5.58,3.22-5.58,11.27,0,14.49l12.18,7.03-5.38,3.1-.98-1.69c-.99-1.71-3.19-2.3-4.9-1.31h0c-1.71.99-2.3,3.19-1.31,4.9l7.66,13.27c.99,1.71,3.19,2.3,4.9,1.31l3.11-1.79,13.86-8,26.85,15.5v15.17h-1.96c-1.97,0-3.59,1.62-3.59,3.59h0c0,1.97,1.62,3.59,3.59,3.59h15.32c1.97,0,3.59-1.62,3.59-3.59v-8.97l14.31,8.26c5.58,3.22,12.55-.8,12.55-7.24V8.38c0-6.44-6.97-10.46-12.55-7.24Z"/>
  <path class="st2" d="M64.19,70.41c-4.31,0-8.36-1.68-11.41-4.73-.56-.56-.56-1.47,0-2.03s1.47-.56,2.03,0c2.51,2.51,5.84,3.89,9.38,3.89s6.87-1.38,9.38-3.89c.56-.56,1.47-.56,2.03,0s.56,1.47,0,2.03c-3.05,3.05-7.1,4.73-11.41,4.73Z"/>
  <rect class="st0" x="60.5" y="41.25" width="9.9" height="16.07" rx="4.95" ry="4.95"/>
  <rect class="st1" x="62.01" y="48.34" width="6.94" height="8.98" rx="3.47" ry="3.47"/>
  <rect class="st0" x="73.5" y="41.25" width="9.9" height="16.07" rx="4.95" ry="4.95"/>
  <rect class="st1" x="75.02" y="48.34" width="6.94" height="8.98" rx="3.47" ry="3.47"/>
</svg>