<?xml version="1.0" encoding="UTF-8"?>
<svg id="Layer_1" xmlns="http://www.w3.org/2000/svg" version="1.1" viewBox="0 0 132.84 132.33">
  <!-- Generator: Adobe Illustrator 29.5.1, SVG Export Plug-In . SVG Version: 2.1.0 Build 141)  -->
  <defs>
    <style>
      .st0 {
        fill: #fff;
      }

      .st1 {
        fill: #354c9b;
      }

      .st2 {
        fill: #f0c71c;
      }

      .st3 {
        fill: #2f4fa0;
      }
    </style>
  </defs>
  <path class="st2" d="M66.42,0C29.41,0,0,26.32,0,65.17v33.76c0,5.81,4.94,10.71,11.01,10.71h25.98s0,0,0,0v14.02s0,0,0,0h-2.36c-2.38,0-4.33,1.95-4.33,4.33h0c0,2.38,1.95,4.33,4.33,4.33h18.49c2.38,0,4.33-1.95,4.33-4.33v-18.35s0,0,0,0h16.23s0,0,0,0l12.71,12.71h0s-1.67,1.67-1.67,1.67c-1.68,1.68-1.68,4.44,0,6.12h0c1.68,1.68,4.44,1.68,6.12,0l13.07-13.07c1.68-1.68,1.68-4.44,0-6.12l-1.3-1.3s0,0,0,0h19.04c6.07,0,11.19-4.9,11.19-10.71v-33.58C132.84,26.32,103.43,0,66.42,0Z"/>
  <path class="st3" d="M69.33,68.19c-4.13,0-8.26-1.57-11.41-4.72-.56-.56-.56-1.47,0-2.03s1.47-.56,2.03,0c5.17,5.17,13.59,5.17,18.77,0,.56-.56,1.47-.56,2.03,0s.56,1.47,0,2.03c-3.15,3.15-7.28,4.72-11.41,4.72Z"/>
  <rect class="st0" x="65.64" y="39.04" width="9.9" height="16.07" rx="4.95" ry="4.95"/>
  <rect class="st1" x="68.44" y="40.13" width="6.94" height="8.98" rx="3.47" ry="3.47"/>
  <rect class="st0" x="78.64" y="39.04" width="9.9" height="16.07" rx="4.95" ry="4.95"/>
  <rect class="st1" x="81.44" y="40.13" width="6.94" height="8.98" rx="3.47" ry="3.47"/>
</svg>