<?xml version="1.0" encoding="UTF-8"?>
<svg id="Layer_1" xmlns="http://www.w3.org/2000/svg" version="1.1" viewBox="0 0 480 102.51">
  <!-- Generator: Adobe Illustrator 29.5.1, SVG Export Plug-In . SVG Version: 2.1.0 Build 141)  -->
  <defs>
    <style>
      .st0 {
        fill: #354c9b;
      }
    </style>
  </defs>
  <path class="st0" d="M454.81,52.72c-5.43,0-10.42,1.6-14.5,4.47-4.62-19.65-21.77-32.25-42.56-32.25-15.97,0-29.8,7.44-37.44,19.76-3.37.32-6.54,1.49-9.34,3.41-6.06-22.2-25.91-36.34-49.86-36.34s-43.95,14.25-49.93,36.51c-3.34-2.35-7.19-3.65-11.31-3.67C234.26,17.48,211.61,0,184.06,0c-29.44,0-53.28,19.95-56.72,50.19-6.66-15.59-22.07-25.25-40.27-25.25-21.07,0-38.39,12.94-42.73,32.96-4.64-3.32-10.48-5.19-16.86-5.19-15.31,0-27.47,10.69-27.47,26.46v23.32h480v-23.25c0-15.85-11.15-26.54-25.19-26.54Z"/>
</svg>