<?xml version="1.0" encoding="UTF-8"?>
<svg id="Layer_1" xmlns="http://www.w3.org/2000/svg" version="1.1" viewBox="0 0 230.32 250.45">
  <!-- Generator: Adobe Illustrator 29.7.1, SVG Export Plug-In . SVG Version: 2.1.1 Build 8)  -->
  <defs>
    <style>
      .st0 {
        fill: #fff;
      }

      .st1 {
        fill: #bdccd4;
      }
    </style>
  </defs>
  <path class="st1" d="M173.17,235.03c-36.31,18.97-86.2,21.14-122.91,2.59C15.57,220.1-4.44,185.68.84,147.07c5.2-38.04,32.25-61.67,70.18-64.24,1.21-.08,2.34-.04,3.43.07h.14c10.72-.48,21.57.55,32.1,2.1,13.37,1.97,29.14,5.06,39.38,14.59,5.92,5.51-2.96,14.35-8.86,8.86-.71-.66-1.53-1.29-2.44-1.88.03-.05.07-.1.1-.14-.03.04-.07.09-.11.14-.03.05-.07.1-.11.16-.05.06-.09.12-.14.18-.01.02-.03.05-.05.08-.09.13-.18.25-.27.36-.07.1-.15.21-.23.32-.12.17-.23.32-.33.45-.02.03-.04.05-.06.08-.04.06-.09.12-.13.18-.04.05-.08.1-.12.16-.04.05-.07.1-.1.14.04-.04.07-.08.11-.13,5.45,4.49,10.33,9.7,14.48,15.54,4.12,5.81-5.4,13.08-9.84,7.6-.73-.9-1.5-1.76-2.3-2.6-1.06-1.09-2.75.39-1.83,1.61,2.43,3.23,4.73,6.54,6.92,9.93,3.85,5.92-5.39,13.14-9.84,7.59-3.06-3.83-6.24-7.55-9.56-11.15-.97-1.05-2.63.14-1.97,1.4,1.73,3.33,3.3,6.75,4.76,10.23,0,.01.01.01.01.02.2.5.43.99.63,1.5,2.75,6.77-7.99,10.71-11.45,4.83-4.09-6.95-8.5-13.58-13.14-20-.41.19-.7.33-.9.42-.17.08-.28.13-.34.16-.04.02-.06.03-.07.03-.2.09-.49.23-.9.42.63,2.24,1.11,4.52,1.48,6.8.54,3.35-.82,6.73-4.38,7.71-3.12.85-7.01-1.07-7.71-4.38-.93-4.44-2.22-8.75-3.82-12.93-.01-.05-.03-.09-.06-.14-.54-1.07-1.11-2.13-1.81-3.13-.03-.04-.06-.09-.09-.14-5.59-7.89-16.43-9.89-25.07-5.54-15.95,8.04-22.41,27.21-18.32,46.49,8.17,38.42,56.65,44.42,88.13,39.98,37.87-5.36,65.99-32.01,66.47-71.36.5-40.35-18.78-77.86-60.31-87.37-.06-.01-.1-.03-.16-.04-.39-.01-.78-.03-1.18-.09-9.58-1.33-17.22,1.77-23.24,7.72-.03.03-.06.06-.09.09-2.13,2.45-4.16,4.99-5.99,7.67-4.5,6.59-15.1.61-10.82-6.33,1.37-2.23,2.86-4.4,4.48-6.46.85-1.07-.42-2.52-1.59-1.8-7,4.32-13.86,8.91-20.52,13.95-5.86,4.42-12.4-4.97-7.6-9.85,2.83-2.86,5.76-5.59,8.82-8.14,1.1-.92.01-2.65-1.28-2.05-4.13,1.93-8.19,4.01-12.2,6.21-7.16,3.95-12.9-6.29-6.32-10.82,3.07-2.12,6.2-4.14,9.4-6.05,1.32-.79.25-2.8-1.15-2.16-.72.33-1.43.68-2.13,1.06-7.11,3.86-13.15-6.53-6.32-10.82,5.59-3.51,11.55-6.25,17.72-8.21,1.49-.48.89-2.74-.63-2.35-.91.23-1.81.51-2.69.83-7.58,2.82-10.82-9.3-3.33-12.08,12.83-4.77,28.81-1.3,41.58,1.85,10.79,2.67,34.15,11.37,35.23,11.61,52.15,11.95,82.24,57.01,87.2,108.09,4.46,45.96-14.67,89.27-56.52,111.13Z"/>
  <path class="st0" d="M184.63,209.91h0c-.04.06-.07.1-.11.14.03-.04.06-.09.1-.14h0Z"/>
  <path class="st0" d="M184.88,209.57c-.05.06-.09.12-.14.18.04-.06.09-.12.13-.18h0Z"/>
  <path class="st0" d="M185.82,208.28s-.04.05-.06.08c.02-.03.04-.06.05-.08h0Z"/>
  <path class="st0" d="M186.07,207.94c-.04.06-.08.11-.12.16.04-.06.08-.11.11-.16h0Z"/>
</svg>