<?xml version="1.0" encoding="UTF-8" standalone="no"?>
<!-- Created with Inkscape (http://www.inkscape.org/) -->

<svg
   width="82.689651mm"
   height="82.689651mm"
   viewBox="0 0 82.689651 82.689651"
   version="1.1"
   id="svg1"
   inkscape:export-filename="logo_placeholder.svg"
   inkscape:export-xdpi="96"
   inkscape:export-ydpi="96"
   inkscape:version="1.4 (86a8ad7, 2024-10-11)"
   sodipodi:docname="logo_placeholder.svg"
   xmlns:inkscape="http://www.inkscape.org/namespaces/inkscape"
   xmlns:sodipodi="http://sodipodi.sourceforge.net/DTD/sodipodi-0.dtd"
   xmlns="http://www.w3.org/2000/svg"
   xmlns:svg="http://www.w3.org/2000/svg">
  <sodipodi:namedview
     id="namedview1"
     pagecolor="#ffffff"
     bordercolor="#000000"
     borderopacity="0.25"
     inkscape:showpageshadow="2"
     inkscape:pageopacity="0.0"
     inkscape:pagecheckerboard="0"
     inkscape:deskcolor="#d1d1d1"
     inkscape:document-units="mm"
     inkscape:zoom="0.69753788"
     inkscape:cx="209.30763"
     inkscape:cy="320.41271"
     inkscape:window-width="1920"
     inkscape:window-height="1001"
     inkscape:window-x="-9"
     inkscape:window-y="-9"
     inkscape:window-maximized="1"
     inkscape:current-layer="layer1" />
  <defs
     id="defs1" />
  <g
     inkscape:label="Layer 1"
     inkscape:groupmode="layer"
     id="layer1"
     transform="translate(-50.068962,-33)">
    <path
       id="path1"
       style="fill:#009bb2;fill-opacity:1;stroke-width:0.264583"
       d="M 91.413725 33 A 41.344826 41.344826 0 0 0 50.068962 74.344763 A 41.344826 41.344826 0 0 0 91.413725 115.68953 A 41.344826 41.344826 0 0 0 132.75849 74.344763 A 41.344826 41.344826 0 0 0 91.413725 33 z M 58.727348 61.946554 L 63.489848 61.946554 L 63.489848 76.841768 L 72.047465 76.841768 L 72.047465 80.413643 L 58.727348 80.413643 L 58.727348 61.946554 z M 81.274809 66.051729 C 83.705669 66.051729 85.582557 66.713188 86.905473 68.036104 C 88.236658 69.359021 88.902251 71.165629 88.902251 73.455929 C 88.902251 75.746228 88.232524 77.552836 86.893071 78.875753 C 85.561886 80.190401 83.689132 80.847725 81.274809 80.847725 C 78.860486 80.847725 76.983598 80.190401 75.644145 78.875753 C 74.31296 77.552836 73.647368 75.746228 73.647368 73.455929 C 73.647368 71.149093 74.317094 69.33835 75.656547 68.023702 C 77.004269 66.709054 78.877023 66.051729 81.274809 66.051729 z M 116.47266 66.051729 C 118.90352 66.051729 120.78041 66.713188 122.10332 68.036104 C 123.43451 69.359021 124.1001 71.165629 124.1001 73.455929 C 124.1001 75.746228 123.43038 77.552836 122.09092 78.875753 C 120.75974 80.190401 118.88698 80.847725 116.47266 80.847725 C 114.05834 80.847725 112.18145 80.190401 110.842 78.875753 C 109.51081 77.552836 108.84522 75.746228 108.84522 73.455929 C 108.84522 71.149093 109.51495 69.33835 110.8544 68.023702 C 112.20212 66.709054 114.07487 66.051729 116.47266 66.051729 z M 97.422661 66.101339 C 98.17507 66.101339 98.857199 66.192289 99.469047 66.37419 C 100.08916 66.547823 100.6514 66.791736 101.15577 67.105929 L 101.317 66.485811 L 105.64541 66.485811 L 105.64541 78.813741 C 105.64541 80.120121 105.45938 81.219796 105.08731 82.112764 C 104.71524 83.005733 104.19434 83.704399 103.52461 84.208761 C 102.85489 84.721391 102.0446 85.089327 101.09375 85.312569 C 100.15118 85.54408 99.084575 85.659835 97.89395 85.659835 C 96.926567 85.659835 95.971586 85.601957 95.029008 85.486202 C 94.094699 85.370447 93.284412 85.229887 92.598149 85.064522 L 92.598149 81.579464 L 93.143852 81.579464 C 93.689555 81.794438 94.355148 81.988741 95.140629 82.162374 C 95.926111 82.344275 96.628911 82.435225 97.249028 82.435225 C 98.075851 82.435225 98.745577 82.356677 99.258208 82.199581 C 99.779106 82.050753 100.17598 81.835779 100.44883 81.554659 C 100.70515 81.290076 100.89118 80.951078 101.00694 80.537667 C 101.12269 80.124255 101.18057 79.628162 101.18057 79.049386 L 101.18057 78.788936 C 100.64314 79.227152 100.04782 79.574418 99.394633 79.830733 C 98.741443 80.087048 98.013839 80.215206 97.211821 80.215206 C 95.260519 80.215206 93.755701 79.628162 92.697368 78.454073 C 91.639034 77.279985 91.109868 75.494047 91.109868 73.096261 C 91.109868 71.946977 91.271098 70.954789 91.593559 70.119698 C 91.91602 69.284607 92.370773 68.557003 92.957817 67.936886 C 93.50352 67.35811 94.173247 66.907491 94.966997 66.58503 C 95.769015 66.262569 96.58757 66.101339 97.422661 66.101339 z M 81.274809 69.164718 C 80.844861 69.164718 80.460389 69.222595 80.121391 69.33835 C 79.790662 69.454106 79.472335 69.685616 79.166411 70.032882 C 78.893559 70.355343 78.674451 70.797693 78.509087 71.359932 C 78.35199 71.922172 78.273442 72.629106 78.273442 73.480733 C 78.273442 74.24141 78.343722 74.902869 78.484282 75.465108 C 78.624842 76.01908 78.831547 76.465564 79.104399 76.804561 C 79.368982 77.127022 79.683175 77.362667 80.046977 77.511495 C 80.419047 77.660323 80.840727 77.734737 81.312016 77.734737 C 81.717159 77.734737 82.101632 77.668591 82.465434 77.5363 C 82.837504 77.39574 83.151697 77.164229 83.408012 76.841768 C 83.6974 76.486235 83.912374 76.060421 84.052934 75.564327 C 84.201762 75.059965 84.276176 74.365434 84.276176 73.480733 C 84.276176 72.662179 84.201762 71.975916 84.052934 71.421944 C 83.904106 70.867973 83.6974 70.425623 83.432817 70.094893 C 83.168234 69.755896 82.849907 69.516117 82.477837 69.375557 C 82.105766 69.234998 81.704757 69.164718 81.274809 69.164718 z M 116.47266 69.164718 C 116.04271 69.164718 115.65824 69.222595 115.31924 69.33835 C 114.98851 69.454106 114.67019 69.685616 114.36426 70.032882 C 114.09141 70.355343 113.8723 70.797693 113.70694 71.359932 C 113.54984 71.922172 113.47129 72.629106 113.47129 73.480733 C 113.47129 74.24141 113.54157 74.902869 113.68213 75.465108 C 113.82269 76.01908 114.0294 76.465564 114.30225 76.804561 C 114.56683 77.127022 114.88103 77.362667 115.24483 77.511495 C 115.6169 77.660323 116.03858 77.734737 116.50987 77.734737 C 116.91501 77.734737 117.29948 77.668591 117.66329 77.5363 C 118.03536 77.39574 118.34955 77.164229 118.60586 76.841768 C 118.89525 76.486235 119.11023 76.060421 119.25079 75.564327 C 119.39961 75.059965 119.47403 74.365434 119.47403 73.480733 C 119.47403 72.662179 119.39961 71.975916 119.25079 71.421944 C 119.10196 70.867973 118.89525 70.425623 118.63067 70.094893 C 118.36609 69.755896 118.04776 69.516117 117.67569 69.375557 C 117.30362 69.234998 116.90261 69.164718 116.47266 69.164718 z M 99.233403 69.363155 C 98.059314 69.363155 97.178748 69.702153 96.591704 70.380147 C 96.004659 71.049874 95.711137 71.988318 95.711137 73.195479 C 95.711137 74.534932 95.959184 75.469242 96.455278 75.998409 C 96.95964 76.527576 97.703781 76.792159 98.6877 76.792159 C 99.134184 76.792159 99.5724 76.721879 100.00235 76.581319 C 100.4323 76.440759 100.82504 76.254724 101.18057 76.023214 L 101.18057 69.710421 C 100.92426 69.602934 100.61006 69.520251 100.23799 69.462374 C 99.865922 69.396228 99.531059 69.363155 99.233403 69.363155 z " />
  </g>
</svg>
