<?xml version="1.0" encoding="UTF-8"?>
<svg id="Layer_1" xmlns="http://www.w3.org/2000/svg" version="1.1" viewBox="0 0 1920 256.97">
  <!-- Generator: Adobe Illustrator 29.5.1, SVG Export Plug-In . SVG Version: 2.1.0 Build 141)  -->
  <defs>
    <style>
      .st0 {
        fill: #fff;
      }

      .st1 {
        fill: #354c9b;
      }

      .st2 {
        fill: #f0c71c;
      }

      .st3 {
        fill: #2f4fa0;
      }

      .st4 {
        fill: #d5e6a9;
      }
    </style>
  </defs>
  <g>
    <path class="st4" d="M408.17,1.19l-92.02,53.13c-5.88,3.39-5.88,11.88,0,15.28l12.85,7.42-5.67,3.27-1.03-1.79c-1.04-1.8-3.37-2.43-5.17-1.39h0c-1.8,1.04-2.43,3.37-1.39,5.17l8.08,13.99c1.04,1.8,3.37,2.43,5.17,1.39l3.28-1.89,14.61-8.44,28.31,16.35v16h-2.06c-2.08,0-3.79,1.7-3.79,3.79h0c0,2.08,1.7,3.79,3.79,3.79h16.16c2.08,0,3.79-1.7,3.79-3.79v-9.46l15.09,8.71c5.88,3.39,13.23-.85,13.23-7.64V8.83c0-6.79-7.35-11.03-13.23-7.64Z"/>
    <path class="st3" d="M379.43,74.26c-4.54,0-8.82-1.77-12.03-4.99-.59-.59-.59-1.55,0-2.14.59-.59,1.55-.59,2.14,0,2.65,2.65,6.16,4.1,9.9,4.1s7.25-1.46,9.9-4.1c.59-.59,1.55-.59,2.14,0,.59.59.59,1.55,0,2.14-3.22,3.22-7.49,4.99-12.03,4.99Z"/>
    <rect class="st0" x="375.54" y="43.5" width="10.44" height="16.95" rx="4.95" ry="4.95"/>
    <rect class="st1" x="377.14" y="50.98" width="7.32" height="9.47" rx="3.47" ry="3.47"/>
    <rect class="st0" x="389.25" y="43.5" width="10.44" height="16.95" rx="4.95" ry="4.95"/>
    <rect class="st1" x="390.85" y="50.98" width="7.32" height="9.47" rx="3.47" ry="3.47"/>
  </g>
  <path class="st2" d="M1824,44.09c-53.49,0-96,38.04-96,94.2v.26c0-56.41-42.51-94.45-96-94.45s-96,38.04-96,94.2v.26c0-56.41-42.51-94.45-96-94.45s-96,38.04-96,94.2v.26c0-56.41-42.51-94.45-96-94.45s-96,38.04-96,94.2v.26c0-56.41-42.51-94.45-96-94.45s-96,38.04-96,94.2v.26c0-56.41-42.51-94.45-96-94.45s-96,38.04-96,94.2v.26c0-56.41-42.51-94.45-96-94.45s-96,38.04-96,94.2v.26c0-56.41-42.51-94.45-96-94.45s-96,38.04-96,94.2v.26c0-56.41-42.51-94.45-96-94.45s-96,38.04-96,94.2v.26c0-56.41-42.51-94.45-96-94.45S0,82.13,0,138.29v118.68h1920v-118.43c0-56.41-42.51-94.45-96-94.45Z"/>
</svg>