<?xml version="1.0" encoding="UTF-8"?>
<svg id="Layer_1" xmlns="http://www.w3.org/2000/svg" version="1.1" viewBox="0 0 1920.06 298.81">
  <!-- Generator: Adobe Illustrator 29.5.1, SVG Export Plug-In . SVG Version: 2.1.0 Build 141)  -->
  <defs>
    <style>
      .st0 {
        fill: #fff;
      }

      .st1 {
        fill: #354c9b;
      }

      .st2 {
        fill: #e67ab0;
      }

      .st3 {
        fill: #2f4fa0;
      }

      .st4 {
        fill: #d9cee6;
      }
    </style>
  </defs>
  <g>
    <path class="st4" d="M1492.12,96.39c.12-.81-.06-1.67-.63-2.47L1426.52,2.02c-1.9-2.69-6.65-2.69-8.55,0l-64.97,91.9c-.57.8-.75,1.66-.63,2.47-.12.81.06,1.67.63,2.47l57.87,81.86-9.53,14.73-1.75-1.13c-1.76-1.14-4.14-.63-5.28,1.13h0c-1.14,1.76-.63,4.14,1.13,5.29l13.7,8.86c1.76,1.14,4.14.63,5.28-1.13l2.08-3.21,7.43-11.48,7.66,9.07-1.59,1.34c-1.61,1.36-1.81,3.78-.45,5.39h0c1.36,1.61,3.78,1.81,5.39.45l12.46-10.53c1.61-1.36,1.81-3.78.45-5.39l-2.47-2.92-10.43-12.35,56.55-79.99c.57-.8.75-1.66.63-2.47Z"/>
    <path class="st3" d="M1418.53,93.27c-4.13,0-8.26-1.57-11.41-4.72-.56-.56-.56-1.47,0-2.03s1.47-.56,2.03,0c5.17,5.17,13.59,5.17,18.77,0,.56-.56,1.47-.56,2.03,0s.56,1.47,0,2.03c-3.15,3.15-7.28,4.72-11.41,4.72Z"/>
    <rect class="st0" x="1413.58" y="59.8" width="9.9" height="16.07" rx="4.95" ry="4.95"/>
    <rect class="st1" x="1413.51" y="62.41" width="6.94" height="8.98" rx="3.47" ry="3.47"/>
    <rect class="st0" x="1426.59" y="59.8" width="9.9" height="16.07" rx="4.95" ry="4.95"/>
    <rect class="st1" x="1426.52" y="62.41" width="6.94" height="8.98" rx="3.47" ry="3.47"/>
  </g>
  <path class="st2" d="M1920.06,298.81l-.02-214.37c-13.93-10.6-30.35-16.72-47.92-16.72-48.49,0-88.16,46.55-91.21,105.37-3.05-58.82-42.71-105.37-91.21-105.37s-88.16,46.55-91.21,105.37c-3.05-58.82-42.71-105.37-91.21-105.37s-88.16,46.55-91.21,105.37c-3.05-58.82-42.71-105.37-91.21-105.37s-88.16,46.55-91.21,105.37c-2.08-40.15-21.23-74.58-48.59-92.4-.02-.01-.03-.02-.05-.03-1.78-1.15-3.59-2.24-5.43-3.25-.06-.04-.13-.07-.19-.11-1.81-.99-3.65-1.9-5.51-2.74-.11-.05-.22-.1-.32-.14-1.84-.82-3.7-1.57-5.6-2.25-.14-.05-.29-.1-.43-.15-.87-.31-1.75-.6-2.64-.88-.07-.02-.14-.04-.2-.07-.94-.29-1.89-.56-2.84-.81-.17-.05-.34-.09-.51-.13-.81-.21-1.63-.41-2.44-.59-.17-.04-.34-.08-.52-.12-.94-.2-1.88-.39-2.83-.56-.17-.03-.35-.06-.52-.09-.79-.13-1.59-.26-2.39-.37-.24-.03-.47-.07-.71-.1-.94-.12-1.89-.23-2.84-.31-.14-.01-.28-.02-.42-.03-.83-.07-1.66-.12-2.49-.16-.27-.01-.54-.03-.81-.04-.94-.04-1.88-.06-2.83-.06-.02,0-.05,0-.07,0-48.49,0-88.16,46.55-91.21,105.37-3.05-58.82-42.71-105.37-91.21-105.37s-85.67,43.69-90.81,99.89c-.17,1.81-.3,3.64-.39,5.48-.1-1.84-.23-3.66-.39-5.48-5.14-56.21-43.84-99.89-90.81-99.89-.99,0-1.97.03-2.95.06-.24,0-.48.02-.73.03-.88.04-1.75.1-2.63.17-.1,0-.21.01-.32.02-.97.09-1.93.19-2.88.31-.23.03-.46.06-.68.09-.81.11-1.61.23-2.42.37-.17.03-.35.06-.52.09-.94.17-1.88.35-2.81.55-.2.04-.41.09-.61.14-.77.17-1.54.36-2.31.56-.21.05-.42.11-.63.16-.91.24-1.82.5-2.73.78-.17.05-.33.11-.5.16-.76.24-1.52.49-2.28.76-.23.08-.46.16-.69.24-.89.32-1.77.65-2.65,1-.1.04-.2.09-.31.13-.78.32-1.56.65-2.34,1-.24.11-.48.21-.72.32-.81.37-1.62.75-2.42,1.15-.06.03-.12.05-.17.08-.84.42-1.67.86-2.5,1.31-.24.13-.48.26-.72.4-.69.38-1.37.77-2.05,1.18-.16.09-.32.18-.48.28-.8.48-1.59.97-2.37,1.48-.24.15-.47.31-.71.46-.61.4-1.22.82-1.82,1.24-.21.15-.42.29-.64.44-.75.53-1.5,1.08-2.24,1.64-.07.06-.15.11-.22.16h0c-24.46,18.66-41.26,51.14-43.2,88.6-3.05-58.82-42.71-105.37-91.21-105.37s-88.16,46.55-91.21,105.37c-3.05-58.82-42.71-105.37-91.21-105.37s-88.16,46.55-91.21,105.37c-3.05-58.82-42.71-105.37-91.21-105.37s-88.16,46.55-91.21,105.37c-3.05-58.82-42.71-105.37-91.21-105.37-17.61,0-34.06,6.14-48.01,16.77l.07,191.82v22.49h729.64s1190.34,0,1190.34,0Z"/>
</svg>