<?xml version="1.0" encoding="UTF-8"?>
<svg id="Layer_1" xmlns="http://www.w3.org/2000/svg" version="1.1" viewBox="0 0 1920 346.65">
  <!-- Generator: Adobe Illustrator 29.5.1, SVG Export Plug-In . SVG Version: 2.1.0 Build 141)  -->
  <defs>
    <style>
      .st0 {
        fill: #68cdf1;
      }

      .st1 {
        fill: #fff;
      }

      .st2 {
        fill: #354c9b;
      }

      .st3 {
        fill: #2f4fa0;
      }

      .st4 {
        fill: #f15825;
      }
    </style>
  </defs>
  <g>
    <path class="st4" d="M512.07,88.18c0-12.43-6.56-23.62-17.02-31.42,5.32-5.9,8.49-13.16,8.49-21.03,0-19.73-19.72-35.73-44.04-35.73s-44.04,16-44.04,35.73c0,7.87,3.18,15.13,8.49,21.03-10.46,7.8-17.02,18.98-17.02,31.42,0,9.34,3.71,17.97,9.98,24.99l-9.25,9.25-1.31-1.31c-1.32-1.32-3.49-1.32-4.81,0h0c-1.32,1.32-1.32,3.49,0,4.81l10.26,10.26c1.32,1.32,3.49,1.32,4.81,0l2.4-2.4,10.55-10.55c8.5,4.79,18.81,7.6,29.94,7.6,1.77,0,3.53-.07,5.25-.21v8.76h-1.85c-1.87,0-3.4,1.53-3.4,3.4h0c0,1.87,1.53,3.4,3.4,3.4h14.51c1.87,0,3.4-1.53,3.4-3.4v-15.61c18.41-6.64,31.26-21.59,31.26-38.99Z"/>
    <path class="st3" d="M450.95,78.36c-6.99,0-12.67-5.68-12.67-12.67,0-.62.5-1.13,1.13-1.13s1.13.5,1.13,1.13c0,5.74,4.67,10.42,10.42,10.42.62,0,1.13.5,1.13,1.13s-.5,1.13-1.13,1.13Z"/>
    <rect class="st1" x="450.44" y="53.07" width="7.77" height="12.62" rx="3.89" ry="3.89"/>
    <rect class="st2" x="452.82" y="56.66" width="5.45" height="7.05" rx="2.72" ry="2.72"/>
    <rect class="st1" x="460.65" y="53.07" width="7.77" height="12.62" rx="3.89" ry="3.89"/>
    <rect class="st2" x="463.03" y="56.66" width="5.45" height="7.05" rx="2.72" ry="2.72"/>
  </g>
  <path class="st0" d="M0,346.65l1920-.8V57.41c-15.08-9.68-34.68-15.46-55.4-15.46-44.39,0-81.15,26.51-87.55,61.09-13.53-6.8-29.48-10.73-46.56-10.73-.62,0-1.23,0-1.85.02-19.9.33-38.76-8.15-52.51-22.53-16.2-16.94-41.52-27.84-69.98-27.84-44.39,0-81.15,26.51-87.55,61.09-13.53-6.8-29.48-10.73-46.56-10.73-.62,0-1.23,0-1.85.02-19.9.33-38.76-8.15-52.51-22.53-16.2-16.94-41.52-27.84-69.98-27.84-44.39,0-81.15,26.51-87.55,61.09-13.53-6.8-29.48-10.73-46.56-10.73-.62,0-1.23,0-1.85.02-19.9.33-38.76-8.15-52.51-22.53-16.2-16.94-41.52-27.84-69.98-27.84-44.39,0-81.15,26.51-87.55,61.09-13.53-6.8-29.48-10.73-46.56-10.73-.62,0-1.23,0-1.85.02-19.9.33-38.76-8.15-52.51-22.53-16.2-16.94-41.52-27.84-69.98-27.84-44.39,0-81.15,26.51-87.55,61.09-13.53-6.8-29.48-10.73-46.56-10.73-.62,0-1.23,0-1.85.02-19.9.33-38.76-8.15-52.51-22.53-16.2-16.94-41.52-27.84-69.98-27.84-44.39,0-81.15,26.51-87.55,61.09-13.53-6.8-29.48-10.73-46.56-10.73-.62,0-1.23,0-1.85.02-19.9.33-38.76-8.15-52.51-22.53-16.2-16.94-41.52-27.84-69.98-27.84-44.39,0-81.15,26.51-87.55,61.09-13.53-6.8-29.48-10.73-46.56-10.73-.62,0-1.23,0-1.85.02-19.9.33-38.76-8.15-52.51-22.53-16.2-16.94-41.52-27.84-69.98-27.84-20.8,0-40.29,5.95-55.4,15.7v289Z"/>
</svg>