<?xml version="1.0" encoding="UTF-8"?>
<svg id="Layer_1" xmlns="http://www.w3.org/2000/svg" version="1.1" viewBox="0 0 1920 401.69">
  <!-- Generator: Adobe Illustrator 29.5.1, SVG Export Plug-In . SVG Version: 2.1.0 Build 141)  -->
  <defs>
    <style>
      .st0 {
        fill: #68cdf1;
      }

      .st1 {
        fill: #fff;
      }

      .st2 {
        fill: #354c9b;
      }

      .st3 {
        fill: #2f4fa0;
      }

      .st4 {
        fill: #0fb6a6;
      }
    </style>
  </defs>
  <g>
    <path class="st0" d="M1816.69,141.88h-4.73s-6.49,0-6.49,0c0-.28.05-.55.05-.83,0-13.63-5.97-26.11-15.74-35.67-1.23-1.21-2.42-2.47-3.26-3.9-.05-.08-.09-.16-.14-.24-5.53-9.53-3.89-20.79,2.37-29.98,2.24-3.29,4.02-6.84,5.27-10.59,0,0,0,0,.01-.01h0c1.33-4.02,2.09-8.23,2.09-12.59h0c0-19.75-14.43-37.75-36.35-43.84-37.06-10.29-71.62,13.48-71.62,43.84h0c0,4.36.76,8.57,2.09,12.58h0s0,.01.01.02c1.25,3.74,3.03,7.29,5.27,10.59,6.26,9.19,7.9,20.45,2.37,29.98-.05.08-.09.16-.14.24-.85,1.43-2.03,2.69-3.26,3.9-9.77,9.56-15.74,22.04-15.74,35.67,0,24.34,18.92,45.07,44.78,51.92v15.55h-2.58c-2.6,0-4.73,2.13-4.73,4.73h0c0,2.6,2.13,4.73,4.73,4.73h20.19c2.6,0,4.73-2.13,4.73-4.73v-4.73s0-13.3,0-13.3c23.6-1.2,43.79-13.56,53.48-31h12.61v2.58c0,2.6,2.13,4.73,4.73,4.73h0c2.6,0,4.73-2.13,4.73-4.73v-20.19c0-2.6-2.13-4.73-4.73-4.73Z"/>
    <path class="st3" d="M1742.79,158.47c-4.05,0-7.85-1.58-10.72-4.44-.69-.69-.69-1.82,0-2.51s1.82-.69,2.51,0c4.39,4.39,12.03,4.39,16.41,0,.69-.69,1.82-.69,2.51,0s.69,1.82,0,2.51c-2.86,2.87-6.67,4.44-10.72,4.44Z"/>
    <rect class="st1" x="1725.37" y="115.91" width="12.25" height="19.89" rx="4.64" ry="4.64"/>
    <rect class="st2" x="1726.7" y="124.69" width="8.59" height="11.11" rx="3.25" ry="3.25"/>
    <rect class="st1" x="1741.46" y="115.91" width="12.25" height="19.89" rx="4.64" ry="4.64"/>
    <rect class="st2" x="1742.79" y="124.69" width="8.59" height="11.11" rx="3.25" ry="3.25"/>
  </g>
  <path class="st4" d="M0,401.69l1920-.8V112.46c-15.08-9.68-34.68-15.46-55.4-15.46-44.39,0-81.15,26.51-87.55,61.09-13.53-6.8-29.48-10.73-46.56-10.73-13.47,0-26.23,2.44-37.66,6.81-8.36-32.64-43.99-57.17-86.69-57.17s-81.15,26.51-87.55,61.09c-13.53-6.8-29.48-10.73-46.56-10.73-13.47,0-26.23,2.44-37.66,6.81-8.36-32.64-43.99-57.17-86.69-57.17s-81.15,26.51-87.55,61.09c-13.53-6.8-29.48-10.73-46.56-10.73-13.47,0-26.23,2.44-37.66,6.81-8.36-32.64-43.99-57.17-86.69-57.17s-81.15,26.51-87.55,61.09c-13.53-6.8-29.48-10.73-46.56-10.73-13.47,0-26.23,2.44-37.66,6.81-8.36-32.64-43.99-57.17-86.69-57.17s-81.15,26.51-87.55,61.09c-13.53-6.8-29.48-10.73-46.56-10.73-13.47,0-26.23,2.44-37.66,6.81-8.36-32.64-43.99-57.17-86.69-57.17s-81.15,26.51-87.55,61.09c-13.53-6.8-29.48-10.73-46.56-10.73-13.47,0-26.23,2.44-37.66,6.81-8.36-32.64-43.99-57.17-86.69-57.17s-81.15,26.51-87.55,61.09c-13.53-6.8-29.48-10.73-46.56-10.73-13.47,0-26.23,2.44-37.66,6.81-8.36-32.64-43.99-57.17-86.69-57.17-20.8,0-40.29,5.95-55.4,15.7v289Z"/>
</svg>