<?xml version="1.0" encoding="UTF-8"?>
<svg id="Layer_1" xmlns="http://www.w3.org/2000/svg" version="1.1" viewBox="0 0 1921.47 314.38">
  <!-- Generator: Adobe Illustrator 29.5.1, SVG Export Plug-In . SVG Version: 2.1.0 Build 141)  -->
  <defs>
    <style>
      .st0 {
        fill: #fff;
      }

      .st1 {
        fill: #354c9b;
      }

      .st2 {
        fill: #2f4fa0;
      }

      .st3 {
        fill: #0fb6a6;
      }

      .st4 {
        fill: #d5e6a9;
      }
    </style>
  </defs>
  <g>
    <path class="st3" d="M622.15,174.18l-2.7-2.7-10.52-10.52c1.28-3.57,2-7.33,2-11.23,0-10.6-5.1-20.21-13.37-27.39,8.27-7.18,13.37-16.79,13.37-27.39s-5.1-20.21-13.37-27.39c8.27-7.18,13.37-16.79,13.37-27.39,0-22.18-22.17-40.17-49.51-40.17s-49.51,17.98-49.51,40.17c0,10.6,5.1,20.21,13.37,27.39-8.27,7.18-13.37,16.79-13.37,27.39s5.1,20.21,13.37,27.39c-8.27,7.18-13.37,16.79-13.37,27.39,0,5.68,1.47,11.08,4.1,15.98l-9.7,9.7-1.47-1.47c-1.49-1.49-3.92-1.49-5.4,0h0c-1.49,1.49-1.49,3.92,0,5.4l11.54,11.54c1.49,1.49,3.92,1.49,5.4,0l2.7-2.7,8.9-8.9c8.81,6.57,20.54,10.62,33.45,10.62,14.84,0,28.12-5.33,37.2-13.72l8.07,8.07-1.47,1.47c-1.49,1.49-1.49,3.92,0,5.4h0c1.49,1.49,3.92,1.49,5.4,0l11.54-11.54c1.49-1.49,1.49-3.92,0-5.4Z"/>
    <path class="st2" d="M562.9,69.05c-.79,0-1.43-.64-1.43-1.43s.64-1.43,1.43-1.43c7.32,0,13.27-5.95,13.27-13.27,0-.79.64-1.43,1.43-1.43s1.43.64,1.43,1.43c0,8.9-7.24,16.14-16.14,16.14Z"/>
    <rect class="st0" x="550.98" y="35.27" width="9.9" height="16.07" rx="4.95" ry="4.95"/>
    <rect class="st1" x="553.78" y="36.36" width="6.94" height="8.98" rx="3.47" ry="3.47"/>
    <rect class="st0" x="563.98" y="35.27" width="9.9" height="16.07" rx="4.95" ry="4.95"/>
    <rect class="st1" x="566.78" y="36.36" width="6.94" height="8.98" rx="3.47" ry="3.47"/>
  </g>
  <path class="st4" d="M1921.47,39.21c0-2.25-2.43-3.65-4.37-2.53l-169.33,97.9V39.21c0-2.25-2.43-3.65-4.37-2.53l-169.33,97.9V39.21c0-2.25-2.43-3.65-4.37-2.53l-169.33,97.9V39.21c0-2.25-2.43-3.65-4.37-2.53l-169.33,97.9V39.21c0-2.25-2.43-3.65-4.37-2.53l-169.33,97.9V39.21c0-2.25-2.43-3.65-4.37-2.53l-169.33,97.9V39.21c0-2.25-2.43-3.65-4.37-2.53l-169.33,97.9V39.21c0-2.25-2.43-3.65-4.37-2.53l-169.33,97.9V39.21c0-2.25-2.43-3.65-4.37-2.53l-169.33,97.9V39.21c0-2.25-2.43-3.65-4.37-2.53l-169.33,97.9V39.21c0-2.25-2.43-3.65-4.37-2.53L1.46,139.97C.49,140.53,0,141.51,0,142.49h0v171.89h1920.71v-66.65c.46-.51.76-1.18.76-1.96V39.21Z"/>
</svg>