<?xml version="1.0" encoding="UTF-8"?>
<svg id="Layer_1" xmlns="http://www.w3.org/2000/svg" version="1.1" viewBox="0 0 1920.06 309.43">
  <!-- Generator: Adobe Illustrator 29.5.1, SVG Export Plug-In . SVG Version: 2.1.0 Build 141)  -->
  <defs>
    <style>
      .st0 {
        fill: #fff;
      }

      .st1 {
        fill: #354c9b;
      }

      .st2 {
        fill: #f0c71c;
      }

      .st3 {
        fill: #2f4fa0;
      }

      .st4 {
        fill: #f15825;
      }
    </style>
  </defs>
  <g>
    <path class="st2" d="M1655.5,0c-39.14,0-70.25,26.12-70.25,64.67v33.5c0,5.76,5.22,10.63,11.64,10.63h27.47s0,0,0,0v13.91s0,0,0,0h-2.5c-2.52,0-4.58,1.93-4.58,4.3h0c0,2.36,2.06,4.3,4.58,4.3h19.55c2.52,0,4.58-1.93,4.58-4.3v-18.21s0,0,0,0h17.17s0,0,0,0l13.44,12.61h0s-1.77,1.66-1.77,1.66c-1.78,1.67-1.78,4.41,0,6.08h0c1.78,1.67,4.7,1.67,6.48,0l13.83-12.97c1.78-1.67,1.78-4.41,0-6.08l-1.38-1.3s0,0,0,0h20.14c6.42,0,11.84-4.87,11.84-10.63v-33.33c0-38.73-31.11-64.85-70.25-64.85Z"/>
    <path class="st3" d="M1658.58,67.67c-4.37,0-8.74-1.56-12.07-4.68-.59-.56-.59-1.46,0-2.01s1.55-.56,2.14,0c5.47,5.13,14.38,5.14,19.85,0,.59-.56,1.55-.56,2.14,0s.59,1.46,0,2.01c-3.33,3.12-7.7,4.68-12.07,4.68Z"/>
    <rect class="st0" x="1654.67" y="38.74" width="10.47" height="15.95" rx="4.95" ry="4.95"/>
    <rect class="st1" x="1657.63" y="39.83" width="7.34" height="8.91" rx="3.47" ry="3.47"/>
    <rect class="st0" x="1668.42" y="38.74" width="10.47" height="15.95" rx="4.95" ry="4.95"/>
    <rect class="st1" x="1671.38" y="39.83" width="7.34" height="8.91" rx="3.47" ry="3.47"/>
  </g>
  <path class="st4" d="M0,285.14v24.29h1920.06v-40.46l-.04-195.27c-2.09-.2-4.2-.31-6.33-.31-17.51,0-33.64,7.06-46.77,18.88-17.34-23.26-42.22-37.85-69.87-37.85-25.34,0-48.35,12.25-65.37,32.2-11.73-8.41-25.36-13.23-39.9-13.23-17.51,0-33.64,7.06-46.77,18.88-17.34-23.26-42.22-37.85-69.87-37.85-25.34,0-48.35,12.25-65.37,32.2-11.73-8.41-25.36-13.23-39.9-13.23-17.51,0-33.64,7.06-46.77,18.88-17.34-23.26-42.22-37.85-69.87-37.85-25.34,0-48.35,12.25-65.37,32.2-11.73-8.41-25.36-13.23-39.9-13.23-17.51,0-33.64,7.06-46.77,18.88-17.34-23.26-42.22-37.85-69.87-37.85-25.34,0-48.35,12.25-65.37,32.2-11.73-8.41-25.36-13.23-39.9-13.23-17.51,0-33.64,7.06-46.77,18.88-17.34-23.26-42.22-37.85-69.87-37.85-25.34,0-48.35,12.25-65.37,32.2-11.73-8.41-25.36-13.23-39.9-13.23-17.51,0-33.64,7.06-46.77,18.88-17.34-23.26-42.22-37.85-69.87-37.85-25.34,0-48.35,12.25-65.37,32.2-11.73-8.41-25.36-13.23-39.9-13.23-17.51,0-33.64,7.06-46.77,18.88-17.34-23.26-42.22-37.85-69.87-37.85-25.34,0-48.35,12.25-65.37,32.2-11.73-8.41-25.36-13.23-39.9-13.23-17.51,0-33.64,7.06-46.77,18.88-17.34-23.26-42.22-37.85-69.87-37.85-25.34,0-48.35,12.25-65.37,32.2-11.73-8.41-25.36-13.23-39.9-13.23-17.51,0-33.64,7.06-46.77,18.88-17.34-23.26-42.22-37.85-69.87-37.85-7.35,0-14.5,1.03-21.37,2.98l-.45,227.74Z"/>
</svg>