<?xml version="1.0" encoding="UTF-8"?>
<svg id="Layer_1" xmlns="http://www.w3.org/2000/svg" version="1.1" viewBox="0 0 1920 327.76">
  <!-- Generator: Adobe Illustrator 29.5.1, SVG Export Plug-In . SVG Version: 2.1.0 Build 141)  -->
  <defs>
    <style>
      .st0 {
        fill: #fff;
      }

      .st1 {
        fill: #354c9b;
      }

      .st2 {
        fill: #e67ab0;
      }

      .st3 {
        fill: #2f4fa0;
      }

      .st4 {
        fill: #d9cee6;
      }
    </style>
  </defs>
  <g>
    <path class="st2" d="M345.49,122.82l-8.07-8.07c9.84-12.17,15.93-28.95,15.93-47.49,0-37.15-24.43-67.26-54.57-67.26s-54.57,30.11-54.57,67.26c0,16.21,4.65,31.07,12.4,42.69l-11.05,11.05-1.37-1.37c-1.39-1.39-3.65-1.39-5.04,0s-1.39,3.65,0,5.04l10.76,10.76c1.39,1.39,3.65,1.39,5.04,0l2.52-2.52,10.31-10.31c8.81,7.51,19.49,11.92,31.01,11.92,9.53,0,18.49-3.02,26.29-8.31l8.52,8.52-1.37,1.37c-1.39,1.39-1.39,3.65,0,5.04h0c1.39,1.39,3.65,1.39,5.04,0l10.76-10.76c1.39-1.39,1.39-3.65,0-5.04l-2.52-2.52Z"/>
    <path class="st3" d="M292.31,61.83c-.79,0-1.43-.64-1.43-1.43s.64-1.43,1.43-1.43c8.39,0,15.22-6.83,15.22-15.22,0-.79.64-1.43,1.43-1.43s1.43.64,1.43,1.43c0,9.98-8.11,18.09-18.09,18.09Z"/>
    <rect class="st0" x="280.82" y="32.08" width="9.9" height="16.07" rx="4.95" ry="4.95"/>
    <rect class="st1" x="280.75" y="34.76" width="6.94" height="8.98" rx="3.47" ry="3.47"/>
    <rect class="st0" x="293.83" y="32.08" width="9.9" height="16.07" rx="4.95" ry="4.95"/>
    <rect class="st1" x="293.75" y="34.76" width="6.94" height="8.98" rx="3.47" ry="3.47"/>
  </g>
  <path class="st4" d="M1919.3,127.87c.6-1.03.79-2.15.66-3.2.12-1.05-.07-2.16-.66-3.2L1850.67,2.61c-2.01-3.48-7.02-3.48-9.03,0l-68.63,118.87c-.6,1.03-.79,2.15-.66,3.2-.12,1.05.07,2.16.66,3.2h-1.4c.6-1.03.79-2.15.66-3.2.12-1.05-.07-2.16-.66-3.2L1702.98,2.61c-2.01-3.48-7.02-3.48-9.03,0l-68.63,118.87c-.6,1.03-.79,2.15-.66,3.2-.12,1.05.07,2.16.66,3.2h-1.4c.6-1.03.79-2.15.66-3.2.12-1.05-.07-2.16-.66-3.2L1555.29,2.61c-2.01-3.48-7.02-3.48-9.03,0l-68.63,118.87c-.6,1.03-.79,2.15-.66,3.2-.12,1.05.07,2.16.66,3.2h-1.4c.6-1.03.79-2.15.66-3.2.12-1.05-.07-2.16-.66-3.2L1407.59,2.61c-2.01-3.48-7.02-3.48-9.03,0l-68.63,118.87c-.6,1.03-.79,2.15-.66,3.2-.12,1.05.07,2.16.66,3.2h-1.4c.6-1.03.79-2.15.66-3.2.12-1.05-.07-2.16-.66-3.2L1259.9,2.61c-2.01-3.48-7.02-3.48-9.03,0l-68.63,118.87c-.6,1.03-.79,2.15-.66,3.2-.12,1.05.07,2.16.66,3.2h-1.4c.6-1.03.79-2.15.66-3.2.12-1.05-.07-2.16-.66-3.2L1112.21,2.61c-2.01-3.48-7.02-3.48-9.03,0l-68.63,118.87c-.6,1.03-.79,2.15-.66,3.2-.12,1.05.07,2.16.66,3.2h-1.4c.6-1.03.79-2.15.66-3.2.12-1.05-.07-2.16-.66-3.2L964.52,2.61c-2.01-3.48-7.02-3.48-9.03,0l-68.63,118.87c-.6,1.03-.79,2.15-.66,3.2-.12,1.05.07,2.16.66,3.2h-1.4c.6-1.03.79-2.15.66-3.2.12-1.05-.07-2.16-.66-3.2L816.82,2.61c-2.01-3.48-7.02-3.48-9.03,0l-68.63,118.87c-.6,1.03-.79,2.15-.66,3.2-.12,1.05.07,2.16.66,3.2h-1.4c.6-1.03.79-2.15.66-3.2.12-1.05-.07-2.16-.66-3.2L669.13,2.61c-2.01-3.48-7.02-3.48-9.03,0l-68.63,118.87c-.6,1.03-.79,2.15-.66,3.2-.12,1.05.07,2.16.66,3.2h-1.4c.6-1.03.79-2.15.66-3.2.12-1.05-.07-2.16-.66-3.2L521.44,2.61c-2.01-3.48-7.02-3.48-9.03,0l-68.63,118.87c-.6,1.03-.79,2.15-.66,3.2-.12,1.05.07,2.16.66,3.2h-1.4c.6-1.03.79-2.15.66-3.2.12-1.05-.07-2.16-.66-3.2L373.75,2.61c-2.01-3.48-7.02-3.48-9.03,0l-68.63,118.87c-.6,1.03-.79,2.15-.66,3.2-.12,1.05.07,2.16.66,3.2h-1.4c.6-1.03.79-2.15.66-3.2.12-1.05-.07-2.16-.66-3.2L226.05,2.61c-2.01-3.48-7.02-3.48-9.03,0l-68.63,118.87c-.6,1.03-.79,2.15-.66,3.2-.12,1.05.07,2.16.66,3.2h-1.4c.6-1.03.79-2.15.66-3.2.12-1.05-.07-2.16-.66-3.2L78.36,2.61c-2.01-3.48-7.02-3.48-9.03,0L.7,121.48c-.6,1.03-.79,2.15-.66,3.2-.12,1.05.07,2.16.66,3.2v199.89h1919.3V127.87h-.7Z"/>
</svg>