<?xml version="1.0" encoding="UTF-8"?>
<svg id="Layer_1" xmlns="http://www.w3.org/2000/svg" version="1.1" viewBox="0 0 841.89 595.28">
  <!-- Generator: Adobe Illustrator 29.3.1, SVG Export Plug-In . SVG Version: 2.1.0 Build 151)  -->
  <defs>
    <style>
      .st0 {
        fill: #f15d5c;
      }

      .st1 {
        fill: #0bb1b7;
      }

      .st2 {
        fill: #003b55;
      }

      .st3 {
        fill: #f2c930;
      }
    </style>
  </defs>
  <g>
    <g>
      <path class="st2" d="M288.22,223.38h22.93c6.72,0,9.95.46,12.8,1.55,7.46,2.83,12.16,9.49,12.16,18.97,0,6.93-3.32,14.5-9.86,17.78v.18s.92,1.19,2.49,3.92l12.8,22.8h-17.96l-11.7-21.98h-7.55v21.98h-16.12v-65.21ZM311.34,252.93c5.16,0,8.38-2.83,8.38-8.03,0-4.93-1.84-7.84-9.95-7.84h-5.43v15.87h7Z"/>
      <path class="st2" d="M370.29,240.52c14,0,21.92,9.67,21.92,22.71,0,1.55-.37,4.93-.37,4.93h-29.94c1.2,5.74,5.99,8.39,11.05,8.39,6.82,0,13.08-4.74,13.08-4.74l5.9,11.04s-7.65,6.84-20.26,6.84c-16.95,0-26.07-12.13-26.07-24.63,0-13.77,9.4-24.53,24.69-24.53ZM376.19,259.13c0-3.56-2.49-6.75-6.26-6.75-4.61,0-6.81,3.28-7.65,6.75h13.91Z"/>
      <path class="st2" d="M400.87,241.62h15.94v46.97h-15.94v-46.97ZM401.06,223.38h15.57v12.31h-15.57v-12.31Z"/>
      <path class="st2" d="M428.6,241.62h15.29v4.1c0,1.55-.18,2.92-.18,2.92h.18c2.21-3.28,6.63-8.11,14.09-8.11,5.99,0,10.78,2.64,13.27,7.93h.18c2.49-3.92,8.11-7.93,15.2-7.93,8.66,0,15.38,4.65,15.38,17.6v30.46h-15.94v-27.82c0-3.46-.64-5.93-3.69-5.93-5.07,0-7.73,3.65-8.75,8.84-.37,1.64-.37,3.56-.37,5.47v19.43h-15.94v-27.82c0-3.46-.64-5.93-3.69-5.93-4.97,0-7.55,3.46-8.66,8.48-.37,1.73-.46,3.83-.46,5.84v19.43h-15.94v-46.97Z"/>
      <path class="st2" d="M537.11,259.31h.64v-.82c0-3.92-3.04-5.2-7-5.2-5.99,0-12.8,4.47-12.8,4.47l-5.53-11.13s8.2-6.11,19.89-6.11c13.36,0,21.37,7.2,21.37,19.15v28.91h-14.55v-2.83c0-1.55.18-2.92.18-2.92h-.18s-3.5,6.84-13.45,6.84c-8.84,0-16.12-5.84-16.12-15.14,0-13.68,20.17-15.23,27.54-15.23ZM530.11,277.64c4.14,0,7.83-4.47,7.83-8.3v-1h-1.47c-5.07,0-10.87,1.46-10.87,5.38,0,2.19,1.38,3.92,4.51,3.92Z"/>
      <path class="st2" d="M583.99,294.6c5.71,0,10.96-2.1,10.96-9.03v-1.55c0-.55.09-1.73.09-1.73h-.18c-2.76,3.28-6.35,4.93-11.88,4.93-14.28,0-21.37-11.58-21.37-23.62s6.91-23.07,21.28-23.07c8.66,0,12.9,4.56,12.9,4.56h.28s-.09-.55-.09-1.1v-2.37h14.92v42.68c0,17.14-13.82,23.44-26.8,23.44-6.36,0-13.36-1.82-17.96-4.2l4.51-11.94s5.9,3.01,13.36,3.01ZM595.32,263.78c0-8.3-4.42-10.12-9.21-10.12-5.62,0-8.47,4.01-8.47,9.39,0,5.84,2.76,11.04,9.12,11.04,4.14,0,8.56-2.1,8.56-10.31Z"/>
      <path class="st2" d="M622.68,241.62h15.94v46.97h-15.94v-46.97ZM622.86,223.38h15.57v12.31h-15.57v-12.31Z"/>
      <path class="st2" d="M650.4,241.62h15.29v4.1c0,1.55-.18,2.92-.18,2.92h.18c2.21-3.65,6.72-8.11,15.11-8.11,9.58,0,17.04,4.38,17.04,17.6v30.46h-15.94v-27.54c0-4.38-1.75-6.2-5.25-6.2-4.98,0-8.02,2.74-9.4,6.75-.65,1.83-.92,3.92-.92,6.2v20.79h-15.94v-46.97Z"/>
      <path class="st2" d="M708.98,241.62h15.94v46.97h-15.94v-46.97ZM709.17,223.38h15.57v12.31h-15.57v-12.31Z"/>
      <path class="st2" d="M736.71,241.62h15.29v4.1c0,1.55-.18,2.92-.18,2.92h.18c2.21-3.65,6.72-8.11,15.11-8.11,9.58,0,17.04,4.38,17.04,17.6v30.46h-15.94v-27.54c0-4.38-1.75-6.2-5.25-6.2-4.98,0-8.02,2.74-9.4,6.75-.65,1.83-.92,3.92-.92,6.2v20.79h-15.94v-46.97Z"/>
      <path class="st2" d="M814.54,294.6c5.71,0,10.96-2.1,10.96-9.03v-1.55c0-.55.09-1.73.09-1.73h-.18c-2.76,3.28-6.35,4.93-11.88,4.93-14.28,0-21.37-11.58-21.37-23.62s6.91-23.07,21.28-23.07c8.66,0,12.9,4.56,12.9,4.56h.28s-.09-.55-.09-1.1v-2.37h14.92v42.68c0,17.14-13.82,23.44-26.8,23.44-6.36,0-13.36-1.82-17.96-4.2l4.51-11.94s5.9,3.01,13.36,3.01ZM825.87,263.78c0-8.3-4.42-10.12-9.21-10.12-5.62,0-8.47,4.01-8.47,9.39,0,5.84,2.76,11.04,9.12,11.04,4.14,0,8.56-2.1,8.56-10.31Z"/>
    </g>
    <path class="st2" d="M288.22,323.12h14.85c4.35,0,6.44.3,8.29,1.01,4.83,1.85,7.87,6.2,7.87,12.4,0,4.53-2.15,9.48-6.38,11.63v.12s.6.77,1.61,2.56l8.29,14.91h-11.63l-7.57-14.37h-4.89v14.37h-10.43v-42.63ZM303.19,342.44c3.34,0,5.43-1.85,5.43-5.25,0-3.22-1.19-5.13-6.44-5.13h-3.52v10.38h4.53Z"/>
    <path class="st2" d="M342.19,334.33c9.06,0,14.19,6.32,14.19,14.85,0,1.01-.24,3.22-.24,3.22h-19.38c.77,3.76,3.88,5.48,7.15,5.48,4.41,0,8.47-3.1,8.47-3.1l3.82,7.21s-4.95,4.47-13.12,4.47c-10.97,0-16.87-7.93-16.87-16.1,0-9,6.08-16.04,15.98-16.04ZM346,346.5c0-2.33-1.61-4.41-4.06-4.41-2.98,0-4.41,2.14-4.95,4.41h9Z"/>
    <path class="st2" d="M364.85,355.02s3.4,3.1,7.81,3.1c1.55,0,3.04-.42,3.04-1.43,0-2.68-14.37-2.98-14.37-13,0-5.79,5.54-9.36,12.64-9.36s10.79,3.52,10.79,3.52l-3.52,7.33s-2.98-2.5-7.27-2.5c-1.55,0-3.04.42-3.04,1.49,0,2.33,14.37,2.68,14.37,12.58,0,5.24-4.65,9.72-12.58,9.72s-12.28-4.53-12.28-4.53l4.41-6.92Z"/>
    <path class="st2" d="M405.52,334.33c9.06,0,14.19,6.32,14.19,14.85,0,1.01-.24,3.22-.24,3.22h-19.38c.77,3.76,3.87,5.48,7.15,5.48,4.41,0,8.47-3.1,8.47-3.1l3.82,7.21s-4.95,4.47-13.12,4.47c-10.97,0-16.88-7.93-16.88-16.1,0-9,6.08-16.04,15.98-16.04ZM409.33,346.5c0-2.33-1.61-4.41-4.06-4.41-2.98,0-4.41,2.14-4.95,4.41h9.01Z"/>
    <path class="st2" d="M441.65,346.62h.42v-.54c0-2.57-1.97-3.4-4.53-3.4-3.88,0-8.29,2.92-8.29,2.92l-3.58-7.28s5.31-3.99,12.88-3.99c8.65,0,13.83,4.71,13.83,12.52v18.9h-9.42v-1.85c0-1.01.12-1.91.12-1.91h-.12s-2.27,4.47-8.71,4.47c-5.72,0-10.43-3.82-10.43-9.9,0-8.94,13.06-9.95,17.83-9.95ZM437.12,358.6c2.68,0,5.07-2.92,5.07-5.43v-.65h-.96c-3.28,0-7.04.95-7.04,3.52,0,1.43.89,2.56,2.92,2.56Z"/>
    <path class="st2" d="M460.37,335.05h9.9v5.19c0,1.01-.12,1.91-.12,1.91h.12c1.31-4.17,5.19-7.63,9.78-7.63.6,0,1.19.12,1.19.12v10.14s-.83-.18-2.09-.18c-2.44,0-6.44.77-7.93,5.36-.36,1.13-.53,2.5-.53,4.18v11.63h-10.32v-30.71Z"/>
    <path class="st2" d="M501.7,334.33c8.35,0,12.22,4.65,12.22,4.65l-4.35,6.92s-2.98-2.98-7.22-2.98c-4.89,0-7.33,3.7-7.33,7.33s2.5,7.63,7.69,7.63c4.29,0,8.41-3.7,8.41-3.7l3.76,7.21s-4.59,5.07-13.18,5.07c-10.97,0-17.11-7.63-17.11-16.1s6.08-16.04,17.11-16.04Z"/>
    <path class="st2" d="M520.54,323.12h10.31v13.47c0,1.55-.12,2.62-.12,2.62h.12c1.73-3.04,5.31-4.89,9.36-4.89,6.2,0,11.03,2.86,11.03,11.51v19.92h-10.31v-18.01c0-2.86-1.13-4.05-3.4-4.05-3.16,0-5.25,1.85-6.14,4.53-.42,1.19-.54,2.5-.54,3.93v13.6h-10.31v-42.63Z"/>
    <path class="st2" d="M574.98,323.12h17.71c8.29,0,13.89,6.08,13.89,14.66s-5.6,14.79-13.89,14.79h-7.28v13.18h-10.43v-42.63ZM590.54,343.63c3.64,0,5.43-2.44,5.43-5.84s-1.79-5.72-5.25-5.72h-5.31v11.57h5.13Z"/>
    <path class="st2" d="M612.43,335.05h9.9v5.19c0,1.01-.12,1.91-.12,1.91h.12c1.31-4.17,5.19-7.63,9.78-7.63.6,0,1.19.12,1.19.12v10.14s-.84-.18-2.09-.18c-2.45,0-6.44.77-7.93,5.36-.36,1.13-.54,2.5-.54,4.18v11.63h-10.31v-30.71Z"/>
    <path class="st2" d="M654.41,346.62h.42v-.54c0-2.57-1.97-3.4-4.53-3.4-3.88,0-8.29,2.92-8.29,2.92l-3.58-7.28s5.31-3.99,12.88-3.99c8.65,0,13.83,4.71,13.83,12.52v18.9h-9.42v-1.85c0-1.01.12-1.91.12-1.91h-.12s-2.27,4.47-8.71,4.47c-5.72,0-10.43-3.82-10.43-9.9,0-8.94,13.06-9.95,17.83-9.95ZM649.88,358.6c2.68,0,5.07-2.92,5.07-5.43v-.65h-.96c-3.28,0-7.04.95-7.04,3.52,0,1.43.89,2.56,2.92,2.56Z"/>
    <path class="st2" d="M687.98,334.33c8.35,0,12.23,4.65,12.23,4.65l-4.35,6.92s-2.98-2.98-7.21-2.98c-4.89,0-7.33,3.7-7.33,7.33s2.5,7.63,7.69,7.63c4.3,0,8.41-3.7,8.41-3.7l3.75,7.21s-4.59,5.07-13.18,5.07c-10.97,0-17.11-7.63-17.11-16.1s6.08-16.04,17.11-16.04Z"/>
    <path class="st2" d="M708.37,343.63h-3.94v-8.05h4.23v-8.82h10.02v8.82h6.44v8.05h-6.44v9.42c0,3.46,3.52,3.94,5.48,3.94.84,0,1.37-.06,1.37-.06v8.94s-1.13.18-2.8.18c-4.89,0-14.37-1.31-14.37-11.63v-10.79Z"/>
    <path class="st2" d="M732.4,335.05h10.32v30.71h-10.32v-30.71ZM732.52,323.12h10.08v8.05h-10.08v-8.05Z"/>
    <path class="st2" d="M766.03,334.33c8.35,0,12.23,4.65,12.23,4.65l-4.35,6.92s-2.98-2.98-7.21-2.98c-4.89,0-7.33,3.7-7.33,7.33s2.5,7.63,7.69,7.63c4.3,0,8.41-3.7,8.41-3.7l3.75,7.21s-4.59,5.07-13.18,5.07c-10.97,0-17.11-7.63-17.11-16.1s6.08-16.04,17.11-16.04Z"/>
    <path class="st2" d="M798.65,334.33c9.06,0,14.19,6.32,14.19,14.85,0,1.01-.24,3.22-.24,3.22h-19.38c.77,3.76,3.87,5.48,7.15,5.48,4.41,0,8.47-3.1,8.47-3.1l3.82,7.21s-4.95,4.47-13.12,4.47c-10.97,0-16.87-7.93-16.87-16.1,0-9,6.08-16.04,15.98-16.04ZM802.46,346.5c0-2.33-1.61-4.41-4.06-4.41-2.98,0-4.41,2.14-4.95,4.41h9.01Z"/>
    <path class="st2" d="M821.31,355.02s3.4,3.1,7.81,3.1c1.55,0,3.04-.42,3.04-1.43,0-2.68-14.37-2.98-14.37-13,0-5.79,5.54-9.36,12.64-9.36s10.79,3.52,10.79,3.52l-3.52,7.33s-2.98-2.5-7.27-2.5c-1.55,0-3.04.42-3.04,1.49,0,2.33,14.37,2.68,14.37,12.58,0,5.24-4.65,9.72-12.58,9.72s-12.28-4.53-12.28-4.53l4.42-6.92Z"/>
  </g>
  <g>
    <path class="st3" d="M96.99,259.37c-16.64-2.41-30.96,12.56-33.13,29.54-1.93,15.15,6.57,53.12-16.91,55.25-18.52,1.68-23-23.69-24.93-37.99-1.69-12.74-2.58-32.19,7.64-42.15.94-.54,2,.2,2.79.63,3.53,1.89,5.44,6.12,7.22,9.51,2.36,4.45,9.94,1.39,8.23-3.48-.43-1.22-.85-2.43-1.28-3.66.5.25.99.5,1.5.76,3.15,1.59,8.14-1.12,6.61-5.08-.29-.77-.58-1.55-.88-2.31,1.21-.31,2.38-.85,3.48-1.75,4.11-3.39,3.64-9.47-.76-12.39-1.71-1.12-3.48-1.51-5.24-1.46-.05-.04-.09-.07-.13-.11,5.21-1.46,10.54-2.31,16.05-2.4,5.8-.09,5.82-9.1,0-9.01-8.14.13-16.09,1.62-23.72,4.41-1.64.61-3.28,1.26-4.9,1.91,1.71-2.54,3.31-5.15,4.85-7.82,2.88-5.04-4.9-9.58-7.78-4.56-3.03,5.3-14.07,16.97-15.47,18.52C3.99,258.41-.07,279.34,1.12,299.19c1.12,18.5,5.58,43.32,19.65,56.44,18.18,16.93,47.09,8.63,57.34-12.45,5.96-12.25,5.55-24.26,5.19-37.52-.16-5.93-.86-13.92,1.51-19.49,1.35-3.22,5.15-7.04,8.93-6.84-.34-.11-.7-.18-1.06-.25-12.45-2.34-7.66-20.82,4.31-19.71ZM51.81,251.6s-.11.07-.18.11c.05-.13.11-.2.18-.11Z"/>
    <path class="st1" d="M191.47,343.78c-6.47,7.55-14.84,13.58-24.01,17.24-12.43,4.95-26.35,5.55-39.09-.38-17.08-7.94-24.89-24.91-24.95-42.91-.04-10.93,4.18-34.64-9.67-38.4-.34-.11-.7-.18-1.06-.25-12.45-2.34-7.66-20.82,4.31-19.71.36.04.72.09,1.08.16.11.02.22.04.31.07.43.09.86.18,1.3.31.43.11.86.23,1.3.36s.86.25,1.28.41c17.08,5.75,21.2,24.71,21.53,41.48.29,14.63-3.22,33.43,13.78,40.53,2.14.9,4.34,1.48,6.57,1.77,7.96,1.06,16.27-1.46,23.22-6.03,6.63-4.36,12.01-10.59,14.72-17.36,4.36-10.93,2.76-31.23-12.43-30.86,10.32-2.38,10.2-18.84-.52-19.94,20.28.05,34.06,15.24,35.47,36.73.88,13.62-4.38,26.59-13.11,36.78Z"/>
    <path class="st0" d="M169.64,290.21s-.04.02-.05,0c-.65.16-1.35.25-2.09.29-14.19.52-18.14,16.41-15.13,28.26,2.31,9.04,7.89,15.55,14.99,19.67-6.95,4.58-15.26,7.1-23.22,6.03-9.02-10.52-13.98-23.99-12.45-38.46,2.13-20.12,14.91-35,35.81-35.77.52-.02,1.03,0,1.51.04h.11c10.72,1.1,10.84,17.56.52,19.94Z"/>
    <path class="st0" d="M225.4,353.22c-16.37,11.01-39.23,14.73-57.95,7.8,9.17-3.66,17.54-9.69,24.01-17.24,3.04-.18,6.09-.65,9.02-1.4,9.38-2.41,18.82-7.98,24.82-15.74,6.11-7.91,7.08-18.77,6.7-28.41-.79-21.11-10.68-40.19-32.53-45.25-.27,0-.54,0-.83-.04-5.17-.72-9.29.95-12.54,4.18-1.17,1.31-2.27,2.7-3.26,4.16-2.43,3.55-8.14.32-5.84-3.42,1.55-2.5,3.37-4.88,5.58-6.84-5.19,3.01-10.23,6.25-15.08,9.91-3.15,2.4-6.68-2.67-4.11-5.3,2.81-2.85,5.8-5.42,9.04-7.64-3.96,1.57-7.8,3.42-11.55,5.49-3.85,2.13-6.95-3.39-3.4-5.84,3.42-2.36,6.99-4.52,10.72-6.32-2.63.49-5.17,1.24-7.42,2.47-3.84,2.09-7.08-3.51-3.4-5.84,5.24-3.28,11.06-5.3,17.02-6.09-3.22-.32-6.43-.2-9.26.85-4.09,1.53-5.84-5.01-1.8-6.5,6.92-2.58,15.53-.7,22.41.99,5.76,1.42,11.73,3.28,17.17,5.94.59.04,1.19.11,1.82.25,28.35,6.5,44.06,30.8,47.03,58.36,2.72,25.02-5.12,47.18-26.39,61.46Z"/>
  </g>
</svg>