<?xml version="1.0" encoding="UTF-8"?>
<svg id="Layer_1" xmlns="http://www.w3.org/2000/svg" version="1.1" viewBox="0 0 66.32 127.19">
  <!-- Generator: Adobe Illustrator 29.6.1, SVG Export Plug-In . SVG Version: 2.1.1 Build 9)  -->
  <defs>
    <style>
      .st0 {
        fill: #0bb6a5;
      }
    </style>
  </defs>
  <path class="st0" d="M66.32,63.6c0-7.1-3.42-13.54-8.95-18.35,5.54-4.81,8.95-11.25,8.95-18.35C66.32,12.05,51.48,0,33.16,0S0,12.05,0,26.9c0,7.1,3.42,13.54,8.95,18.35C3.42,50.06,0,56.5,0,63.6s3.42,13.54,8.95,18.35c-5.54,4.81-8.95,11.25-8.95,18.35,0,14.86,14.85,26.9,33.16,26.9s33.16-12.05,33.16-26.9c0-7.1-3.42-13.54-8.95-18.35,5.54-4.81,8.95-11.25,8.95-18.35Z"/>
</svg>