<?xml version="1.0" encoding="UTF-8"?>
<svg id="Layer_1" xmlns="http://www.w3.org/2000/svg" version="1.1" viewBox="0 0 94.82 94.68">
  <!-- Generator: Adobe Illustrator 29.6.1, SVG Export Plug-In . SVG Version: 2.1.1 Build 9)  -->
  <defs>
    <style>
      .st0 {
        fill: #67ccf1;
      }
    </style>
  </defs>
  <path class="st0" d="M64.05,64.61s.03-.1.04-.14c1.53-5.76,6.47-9.44,12.38-10.57,2.12-.4,4.16-1.08,6.07-2.04,0,0,0,0,0,0h0c2.04-1.03,3.95-2.35,5.62-4.02h0c7.56-7.56,8.93-19.97,2.87-30.69C80.78-.97,58.45-5.1,46.84,6.52h0c-1.67,1.67-2.99,3.57-4.01,5.62h0s0,0,0,0c-.96,1.91-1.63,3.95-2.04,6.07-1.12,5.91-4.8,10.85-10.57,12.38-.05.01-.1.03-.14.04-.87.22-1.81.25-2.74.24-7.4-.08-14.46,2.41-19.67,7.63-11.44,11.44-9.88,31.71,3.46,45.06h0c13.34,13.34,33.62,14.9,45.06,3.46,5.22-5.22,7.71-12.28,7.63-19.67,0-.93.02-1.87.24-2.74Z"/>
</svg>