<?xml version="1.0" encoding="UTF-8"?>
<svg id="Layer_1" xmlns="http://www.w3.org/2000/svg" version="1.1" viewBox="0 0 329.26 210.34">
  <!-- Generator: Adobe Illustrator 29.8.0, SVG Export Plug-In . SVG Version: 2.1.1 Build 160)  -->
  <defs>
    <style>
      .st0 {
        fill: #fff;
      }

      .st1 {
        fill: #d3e5a8;
      }

      .st2 {
        fill: #2d4da1;
      }

      .st3 {
        fill: #2d4d9f;
      }

      .st4 {
        fill: #0bb6a5;
      }

      .st5 {
        fill: #67ccf1;
      }

      .st6 {
        fill: #f0c618;
      }
    </style>
  </defs>
  <g>
    <path class="st6" d="M66.42,52.09C29.41,52.09,0,78.41,0,117.26v33.76c0,5.81,4.94,10.71,11.01,10.71h25.98s0,0,0,0v14.02s0,0,0,0h-2.36c-2.38,0-4.33,1.95-4.33,4.33h0c0,2.38,1.95,4.33,4.33,4.33h18.49c2.38,0,4.33-1.95,4.33-4.33v-18.35s0,0,0,0h16.23s0,0,0,0l12.71,12.71h0s-1.67,1.67-1.67,1.67c-1.68,1.68-1.68,4.44,0,6.12h0c1.68,1.68,4.44,1.68,6.12,0l13.07-13.07c1.68-1.68,1.68-4.44,0-6.12l-1.3-1.3s0,0,0,0h19.04c6.07,0,11.19-4.9,11.19-10.71v-33.58c0-39.03-29.41-65.35-66.42-65.35Z"/>
    <path class="st3" d="M69.33,120.28c-4.13,0-8.26-1.57-11.41-4.72-.56-.56-.56-1.47,0-2.03s1.47-.56,2.03,0c5.17,5.17,13.59,5.17,18.77,0,.56-.56,1.47-.56,2.03,0s.56,1.47,0,2.03c-3.15,3.15-7.28,4.72-11.41,4.72Z"/>
    <rect class="st0" x="65.64" y="91.13" width="9.9" height="16.07" rx="4.95" ry="4.95"/>
    <rect class="st2" x="68.44" y="92.22" width="6.94" height="8.98" rx="3.47" ry="3.47"/>
    <rect class="st0" x="78.64" y="91.13" width="9.9" height="16.07" rx="4.95" ry="4.95"/>
    <rect class="st2" x="81.44" y="92.22" width="6.94" height="8.98" rx="3.47" ry="3.47"/>
  </g>
  <g>
    <path class="st5" d="M277.47,177.62l-2.7-2.7-3.71-3.71c.16-.16.34-.29.5-.45,7.79-7.79,11.51-18.33,11.39-29.37-.01-1.39.03-2.79.36-4.09.02-.07.04-.14.06-.22,2.29-8.6,9.65-14.1,18.48-15.78,3.16-.6,6.21-1.61,9.06-3.04,0,0,0,0,.01,0h0c3.05-1.54,5.89-3.51,8.39-6h0c11.29-11.29,13.33-29.81,4.28-45.82-15.29-27.06-48.63-33.22-65.97-15.88h0c-2.49,2.49-4.46,5.33-5.99,8.39h0s0,0,0,.01c-1.43,2.85-2.44,5.9-3.04,9.06-1.68,8.83-7.17,16.2-15.78,18.48-.07.02-.14.04-.22.06-1.3.33-2.7.38-4.09.36-11.05-.12-21.58,3.6-29.37,11.39-13.91,13.91-14.94,36.56-4.08,55.26l-8.89,8.89-1.47-1.47c-1.49-1.49-3.92-1.49-5.4,0h0c-1.49,1.49-1.49,3.92,0,5.4l11.54,11.54c1.49,1.49,3.92,1.49,5.4,0l2.7-2.7,7.6-7.6c14.17,12.8,32.77,17.28,48.27,12.85l7.21,7.21-1.47,1.47c-1.49,1.49-1.49,3.92,0,5.4h0c1.49,1.49,3.92,1.49,5.4,0l11.54-11.54c1.49-1.49,1.49-3.92,0-5.4Z"/>
    <path class="st3" d="M225.76,144.87c-2.31-2.31-3.59-5.39-3.58-8.66,0-.79.64-1.43,1.43-1.43s1.43.64,1.43,1.43c0,5.02,4.36,9.38,9.38,9.38.79,0,1.43.64,1.43,1.43s-.64,1.43-1.43,1.43c-3.27,0-6.35-1.27-8.66-3.58Z"/>
    <rect class="st0" x="233" y="111.75" width="9.9" height="16.07" rx="4.95" ry="4.95" transform="translate(154.39 -133.17) rotate(45)"/>
    <rect class="st2" x="231.68" y="117.51" width="6.94" height="8.98" rx="3.47" ry="3.47" transform="translate(155.14 -130.54) rotate(45)"/>
    <rect class="st0" x="242.19" y="120.94" width="9.9" height="16.07" rx="4.95" ry="4.95" transform="translate(163.58 -136.98) rotate(45)"/>
    <rect class="st2" x="240.88" y="126.71" width="6.94" height="8.98" rx="3.47" ry="3.47" transform="translate(164.34 -134.35) rotate(45)"/>
  </g>
  <g>
    <path class="st4" d="M226.45,174.18l-2.7-2.7-10.52-10.52c1.28-3.57,2-7.33,2-11.23,0-10.6-5.1-20.21-13.37-27.39,8.27-7.18,13.37-16.79,13.37-27.39s-5.1-20.21-13.37-27.39c8.27-7.18,13.37-16.79,13.37-27.39,0-22.18-22.17-40.17-49.51-40.17s-49.51,17.98-49.51,40.17c0,10.6,5.1,20.21,13.37,27.39-8.27,7.18-13.37,16.79-13.37,27.39s5.1,20.21,13.37,27.39c-8.27,7.18-13.37,16.79-13.37,27.39,0,5.68,1.47,11.08,4.1,15.98l-9.7,9.7-1.47-1.47c-1.49-1.49-3.92-1.49-5.4,0h0c-1.49,1.49-1.49,3.92,0,5.4l11.54,11.54c1.49,1.49,3.92,1.49,5.4,0l2.7-2.7,8.9-8.9c8.81,6.57,20.54,10.62,33.45,10.62,14.84,0,28.12-5.33,37.2-13.72l8.07,8.07-1.47,1.47c-1.49,1.49-1.49,3.92,0,5.4h0c1.49,1.49,3.92,1.49,5.4,0l11.54-11.54c1.49-1.49,1.49-3.92,0-5.4Z"/>
    <path class="st3" d="M167.2,69.05c-.79,0-1.43-.64-1.43-1.43s.64-1.43,1.43-1.43c7.32,0,13.27-5.95,13.27-13.27,0-.79.64-1.43,1.43-1.43s1.43.64,1.43,1.43c0,8.9-7.24,16.14-16.14,16.14Z"/>
    <rect class="st0" x="155.28" y="35.27" width="9.9" height="16.07" rx="4.95" ry="4.95"/>
    <rect class="st2" x="158.08" y="36.36" width="6.94" height="8.98" rx="3.47" ry="3.47"/>
    <rect class="st0" x="168.28" y="35.27" width="9.9" height="16.07" rx="4.95" ry="4.95"/>
    <rect class="st2" x="171.08" y="36.36" width="6.94" height="8.98" rx="3.47" ry="3.47"/>
  </g>
  <g>
    <path class="st1" d="M142.32,90.8l-87.26,50.38c-5.58,3.22-5.58,11.27,0,14.49l12.18,7.03-5.38,3.1-.98-1.69c-.99-1.71-3.19-2.3-4.9-1.31h0c-1.71.99-2.3,3.19-1.31,4.9l7.66,13.27c.99,1.71,3.19,2.3,4.9,1.31l3.11-1.79,13.86-8,26.85,15.5v15.17h-1.96c-1.97,0-3.59,1.62-3.59,3.59h0c0,1.97,1.62,3.59,3.59,3.59h15.32c1.97,0,3.59-1.62,3.59-3.59v-8.97l14.31,8.26c5.58,3.22,12.55-.8,12.55-7.24v-100.75c0-6.44-6.97-10.46-12.55-7.24Z"/>
    <path class="st3" d="M115.08,160.08c-4.31,0-8.36-1.68-11.41-4.73-.56-.56-.56-1.47,0-2.03s1.47-.56,2.03,0c2.51,2.51,5.84,3.89,9.38,3.89s6.87-1.38,9.38-3.89c.56-.56,1.47-.56,2.03,0s.56,1.47,0,2.03c-3.05,3.05-7.1,4.73-11.41,4.73Z"/>
    <rect class="st0" x="111.38" y="130.92" width="9.9" height="16.07" rx="4.95" ry="4.95"/>
    <rect class="st2" x="112.9" y="138.01" width="6.94" height="8.98" rx="3.47" ry="3.47"/>
    <rect class="st0" x="124.39" y="130.92" width="9.9" height="16.07" rx="4.95" ry="4.95"/>
    <rect class="st2" x="125.9" y="138.01" width="6.94" height="8.98" rx="3.47" ry="3.47"/>
  </g>
</svg>