<?xml version="1.0" encoding="UTF-8"?>
<svg id="Layer_1" xmlns="http://www.w3.org/2000/svg" version="1.1" viewBox="0 0 1000 1000">
  <!-- Generator: Adobe Illustrator 29.7.1, SVG Export Plug-In . SVG Version: 2.1.1 Build 8)  -->
  <defs>
    <style>
      .st0 {
        fill: #00979d;
      }
    </style>
  </defs>
  <path class="st0" d="M588.2,499.79c0-4.18,0-9.77-1.39-13.95,62.47-47.42,120.79-93.45,172.16-135.29,23.61,46.02,36.1,96.24,36.1,150.63v2.79c0,170.16-120.79,308.25-294.34,308.25-90.25,0-168-39.06-220.76-99.03,54.15-37.66,115.24-80.9,177.71-128.32,12.5,6.97,26.39,9.77,40.26,9.77,49.99,0,90.26-41.85,90.26-94.85M203.6,501.18v-2.79c0-170.16,120.79-308.24,294.34-308.24,90.26,0,168,39.06,220.76,99.03-54.15,37.65-115.23,80.89-177.71,128.31-12.5-6.97-26.39-9.76-40.26-9.76-49.98,0-90.25,41.84-90.25,94.85,0,4.18,0,9.76,1.38,13.95-62.47,47.42-120.79,93.44-172.16,135.29-23.6-46.02-36.1-96.24-36.1-150.63M43.94,499.79v2.79c0,92.05,26.38,178.52,73.59,249.65C42.55,817.79.9,862.42,7.85,870.79c6.94,8.36,61.08-19.54,144.39-72.53,80.53,93.44,202.71,154.81,347.1,154.81,267.97,0,458.18-207.82,458.18-453.29v-2.79c0-92.05-26.38-178.52-73.59-249.65,73.59-64.16,115.24-108.79,109.68-118.56-6.94-8.37-61.08,19.53-144.39,72.53-80.53-93.45-202.71-154.81-347.1-154.81C234.15,46.5,43.94,254.31,43.94,499.79"/>
</svg>